<?xml version="1.0" encoding="UTF-8" standalone="no"?>
<svg viewBox="0 0 744.09448819 1052.3622047" xmlns="http://www.w3.org/2000/svg">
<path d="m423.76299,140.64125-.40625.125c-2.1443.6406-4.58437.72415-7.0625,1.09375-2.3257.34687-4.69727,1.09418-6.78125,2.8125-2.2947-.5431-4.25639-.21862-5.71875.84375-1.57564,1.14467-2.64866,2.88744-3.625,4.71875-1.89417,3.55288-3.48887,7.43025-6.5,8.9375-5.9965-.54749-11.53935,1.84826-17,3.40625-3.33354-1.26096-6.68539-.9196-9.875-.25-3.32941.69894-6.52234,1.67955-9.5625,1.625h-.375l-.28125.21875c-2.65718,2.08179-4.25581,4.91936-6,7.34375-1.6566,2.30264-3.36333,4.18624-6.125,5.0625a1.12543,1.12543 0 0,0 -.15625,0c-.83942-.0192-1.64669-.0291-2.28125-.0625-.52046-.0274-.81418-.0849-1-.125-4.14354-6.24988-10.63465-9.95398-15.625-15.40625l-.21875-.21875-.3125-.0937c-4.08841-1.10403-8.25955,1.01128-11.875,2.15625-1.80772.57248-3.46117.90122-4.8125.71875s-2.46893-.75698-3.5625-2.46875l-.0937-.15625-.125-.0937c-1.0862-.92877-2.33576-1.31941-3.5-1.34375s-2.2432.26389-3.25.53125-1.94455.52196-2.75.59375-1.42321-.006-2.0625-.40625l-.0312.0312c-1.39369-1.55822-3.34369-2.07236-5.1875-2.25-1.96337-.18915-3.90102-.1657-5.25-.59375a1.12076,1.12076 0 0,0 -.4375-.0625 1.12076,1.12076 0 0,0 -.3125.0625c-4.94919-.2315-8.90574-2.62188-12.21875-6.375l-.28125-.34375h-.4375c-1.28932-.0362-2.13436-.38138-2.25-.53125l-.59375-.78125-.8125.5625c-6.57693,4.63257-15.53535,8.07963-19.1875,16.4375-3.16587.40926-5.29668,2.46267-7.34375,4.3125-.77231.22173-1.42305.0716-2.28125-.34375-.90557-.43823-1.93278-1.13943-3.1875-1.5l-.75-.21875-.40625.65625c-.56702.94432-1.60602,1.65828-3,2.28125s-3.0906,1.13125-4.71875,1.78125-3.21742,1.46681-4.40625,2.78125c-1.04553,1.156-1.69351,2.71864-1.6875,4.6875-2.97015.86135-5.00142,3.13413-6.21875,5.78125-1.2531,2.7249-1.69559,5.8504-1.75,8.65625-4.46711,2.20981-6.40087,6.42751-9.40625,9.3125l-.40625.375 .125.5625c.45816,1.89071-.21541,4.35775-1.53125,6.6875s-3.23055,4.48848-5,5.75l-.40625.28125v.5c-.0812,4.06579-2.65152,7.05502-5.0625,10.4375-2.22527,3.12194-4.26151,6.67464-3.34375,11.375-3.40947.46156-6.23984,2.72239-8.03125,5.5625-1.94776,3.088-2.74845,6.90408-1.8125,10.25 .004.67999-.17356,1.10106-.46875,1.46875s-.74842.66644-1.34375.9375c-1.19067.54212-2.83193.82648-4.21875,1.28125l-.78125.25 .0937.8125c.12466,1.31787-.21521,2.37374-.8125,3.46875-.5449.99897-1.34241,2.01787-2.09375,3.15625-.71996.26797-1.51345.58969-2.65625.9375-1.67348-.94464-3.69475-1.93937-5.84375-2.40625-2.33634-.50758-4.89601-.38449-6.875,1.28125l-.25.21875-.0625.3125c-.2924,1.09283-.63068,2.08183-.65625,3.65625-1.29723.48878-2.46589,1.15218-3.59375,1.8125-4.14412-2.36029-8.97085-1.98887-13.34375-1.5625l-.4375.0312-.28125.3125c-.53256.61992-1.15707,1.27065-2.0625,2.25l-.25.28125-.0312.34375c-.52127,4.68354 1.09652,7.78204 3.65625,10.34375s5.9748,4.76191 9.5,8.25c.48639.481 1.21208,1.80903 1.8125,3.03125 .30021.61111.58139,1.19588.84375,1.6875 .13118.24581.26727.45214.40625.65625s.23538.40987.59375.625c4.48374,2.69519 5.17015,6.05217 4.90625,9.84375s-1.75266,7.78217-1.5,11.21875l.0312.34375 .21875.28125c3.53993,4.24 7.47255,7.95789 12.3125,10.9375l.25.15625h.28125c3.23852.0262 5.61157,1.59497 8.1875,3.5 2.42589,1.79407 4.98903,3.87124 8.5,4.71875 .37617,1.24504.97492,2.40423 1.71875,3.4375 .0754.23037.1053.85757.125,1.4375-.64551.85194-1.58354,1.58745-2.65625,2.4375-1.16469.92293-2.4193,1.99993-3.0625,3.6875l-.1875.46875 .21875.4375c.84173,1.62261 2.32644,2.47359 3.4375,3.34375 1.05514.82637 1.72804,1.53356 1.875,2.6875-.0689.17628-.18657.40992-.3125.65625-.59468.2817-1.47442.25418-2.65625.1875-.63243-.0357-1.30686-.0507-2.03125.125s-1.48215.59819-2.03125,1.3125l-.125.15625-.0312.15625c-.20679.60094-.26364,1.17552-.3125,1.6875l-.0312.28125 .0937.25c.62675,1.44536 2.05876,2.73174 3.125,3.6875l.375.34375 .5-.0625c2.34223-.34073 4.46234.0965 5.875,1.15625s2.23796,2.71333 2.03125,5.28125l-.0625.78125 .71875.3125c3.31039,1.41583 7.2421,1.3945 10.75,1.84375 3.33678.42734 6.15699,1.20019 8,3.59375-.0515.13587-.10694.27095-.15625.40625l-.0312.0937-.0312.15625c-.15255,1.54441.64176,2.72609 1.34375,3.6875s1.35233,1.78858 1.53125,2.5625l.0625.34375 .28125.21875c1.32684,1.12544 2.973.83441 3.84375.65625l.625-.125 .15625-.625c1.67751-6.58816 7.94259-10.4257 13.3125-14.5 .1243-.0679.31801-.0713.46875-.0937 .10907.12848.24593.27021.34375.4375h.0312c1.27132,3.15832 4.43593,4.76685 6.90625,6.375 1.25815.81905 2.34247,1.62919 3,2.5 .57985.76793.82089,1.6044.71875,2.6875-.26006.2221-.53567.4107-1,.46875-.5089.0636-1.12738-.005-1.71875-.0625-.68896-.53598-1.54902-1.23851-2.625-1.65625-.60861-.23629-1.30365-.39298-2.03125-.25s-1.40093.60979-1.90625,1.3125l-.28125.34375 .0937.4375c.11126.6335-.003.83501-.125,1s-.39161.36453-.84375.5625-1.03143.37963-1.625.71875-1.2314.88783-1.53125,1.71875l-.15625.4375 .21875.40625c5.56455,10.66831 13.73677,19.78316 24.5,25.28125 .30953.82282.12656,1.34781-.4375,2.09375-.63733.84283-1.81705,1.80282-3.09375,2.84375s-2.65367,2.20661-3.5625,3.75-1.29285,3.49049-.59375,5.71875l.0312.0625 .0312.0625c.64582,1.42736 1.8194,2.39706 2.65625,2.9375 .19641.17121.41801.4165.65625.6875l.15625.15625 .1875.0937c1.18931.5406 2.40752.44321 3.40625.1875 .86741-.22209 1.58708-.50596 2.25-.6875 1.67388,1.15577 3.2812,1.73179 4.78125,1.75 1.6519.0201 3.11596-.512 4.5-1.09375 2.76808-1.1635 5.1614-2.56319 8.40625-1.78125-.0928-.0224.28438.1031.6875.25s.94284.35994 1.5625.53125c1.12667.31147 2.54707.52756 4.0625.4375 4.19036,2.80632 8.96309,3.92228 13.65625,4.875 4.74702.96366 9.42317,1.74229 13.40625,3.71875 .65299.66912 1.22158,1.18604 1.75,1.625l.1875.1875 .25.0312c3.88496.79895 7.2732-.49716 10.40625-1.875 3.06052-1.34594 5.94561-2.73825 9.09375-2.78125 .62648.33524 1.26395.8693 2.0625,1.40625 .81027.54483 1.83624,1.07589 3.0625,1.09375 3.64514,1.92977 7.48097,1.10898 10.8125.5625 1.70451-.27959 3.29552-.48836 4.6875-.34375s2.58416.60759 3.71875,1.75l.40625.4375 .59375-.15625c3.26987-.86114 5.67146.0258 8.21875,1.375s5.12997,3.21869 8.46875,3.875l.375.0625 .34375-.1875c1.94913-1.09996 4.02912-1.6307 6.125-2.40625 1.91941-.71025 3.83867-1.68087 5.5-3.5 1.271.33974 2.45239.34926 3.5,0 1.23623-.41215 2.23126-1.22912 3.125-2.21875 1.78748-1.97925 3.27239-4.69762 5.40625-7.28125 3.99985-4.84565 5.11222-7.02995 11.21875-9.5625 .50542-.20926 1.03312-.53571 1.75-.96875s1.57026-.94939 2.46875-1.4375c1.79697-.97621 3.81021-1.77438 4.96875-1.71875a1.06434,1.06434 0 0,0 .21875-.0312c6.84422,1.05251 12.94663-.77183 18.78125-3s11.43254-4.82669 17.40625-5.6875c1.43368.63829 2.85066,1.41114 4.40625,2.125 3.59945,6.28205 12.02332,9.51875 18.875,6.96875 1.36958,2.60973 3.93495,3.95158 6.59375,4.03125 2.48594.0745 5.00128-.84135 6.9375-2.46875 .64716,1.24429 1.28811,3.12872 2.1875,5.28125 1.12001,2.68053 2.85205,5.53232 6.25,6.8125 .83778.31492 1.50887.15569 2.125.0937s1.15454-.0287 1.21875,0c6.97241,3.11953 15.59214,5.52391 22.40625,2.875l.40625-.15625 .15625-.4375c1.07007-2.7067 2.3943-7.56339 3.21875-12.40625 .41222-2.42143.68586-4.80203.75-6.9375s-.0676-4.01117-.65625-5.4375c-.83914-2.03642-1.95776-3.68164-3.9375-5.0625-.43232-2.20025-.1598-4.68139-.25-7.28125 3.37913-2.70487 4.71095-6.28626 5.8125-9.6875 1.13129-3.49308 2.1442-6.7795 4.875-9.3125l.125-.0312 .25-.0937 .21875-.1875c1.60892-1.67912 2.06676-3.80475 2.59375-5.65625 .51543-1.81089 1.06191-3.33843 2.40625-4.46875 4.25396-2.11108 9.37875-2.99509 14.4375-4.28125 5.09278-1.29481 10.15279-3.0361 13.90625-7.125l.28125-.3125-.0312-.40625c-.23188-8.60051.52646-18.00259 1.125-26.8125v-.34375l-.15625-.25c-2.3473-3.93167-5.34839-6.35024-8.65625-7.5-1.65393-.57488-3.37989-.82243-5.125-.84375s-3.48919.18921-5.25.59375c-6.84033,1.57153-13.5408,5.86699-18.5,9.71875-.61939-.1666-1.32944-.50402-2.21875-.875-1.00399-.41882-2.31265-.76469-3.625-.1875l-.65625.28125 .0625.71875c.12601,1.61098-.20509,3.04298-.875,3.9375s-1.65616,1.39207-3.4375,1.25h-.0312c-4.04669-1.58491-8.09798-2.72734-11.40625-4.5-3.27673-1.75577-5.83645-4.10406-7.28125-8.34375a1.08666,1.08666 0 0,0 -.25-.75 1.0259,1.0259 0 0,0 -.0312-.0625 1.08666,1.08666 0 0,0 -.0312,0 1.0259,1.0259 0 0,0 0-.0312l-.0625-.0625a1.0259,1.0259 0 0,0 -.0625-.0625c-2.46069-2.81509-4.7032-6.11251-7.71875-8.75 .55777-.39457 1.09891-.76136 1.875-1.28125 1.12264-.75204 2.31272-1.96982 2.46875-3.875v-.0937-.0625c-.0368-.48096-.0567-1.04117-.34375-1.65625l-.0312-.0625-.0625-.0625c-2.73642-4.10628-3.18181-8.51255-3.3125-13.21875-.12713-4.57793.0818-9.42257-1.40625-14.28125 .54309-.93156.93515-1.98691.96875-3.09375 .031-1.02137-.45157-2.02593-1.21875-2.90625 1.97726-2.91291 4.16751-6.44827 5.375-10.3125 1.2441-3.98138 1.35562-8.32925-.90625-12.375 2.16514-7.04107-1.20674-14.9649-5.5-20.0625 .63786-2.50558.70335-4.46354.21875-6.0625-.51561-1.70129-1.63896-2.92462-2.90625-3.84375-2.53457-1.83826-5.66231-2.85099-8-5.4375-3.00329-3.32195-4.56999-6.76403-6.21875-11.1875l-.15625-.4375-.4375-.1875c-2.55224-1.10975-4.01745-2.86242-5.125-5.0625s-1.78761-4.82895-2.625-7.40625l-.15625-.5625-.5625-.125c-1.95522-.51806-3.19803-2.11319-4.53125-4.0625-1.28631-1.88073-2.59929-4.08412-4.90625-5.28125-6.13532-14.61947-10.57383-32.59823-25.34395-41.50005l-.375-.21875zm-.375,2.09375c13.49271,8.32096 17.96199,25.11771 24,39.6875-2.66238.23346-4.72651,1.28236-6.46875,2.625-1.93681,1.49258-3.56612,3.27139-5.40625,4.6875-2.3673-.56724-5.01708-1.0292-7.625-.875-2.61682.15473-5.17781.99118-7.15625,2.96875a.87484,.87484 0 0,0 -.375.28125c-.63256.1391-1.25345.2849-1.8125.34375-.63071.0664-1.12913-.0675-1.59375-.34375-.21599-3.07875-1.49535-6.93476-3.0625-10.5-1.64994-3.75358-3.52692-7.0647-4.78125-8.625-2.04451-2.5427-5.39604-4.25677-8.375-6.15625-2.69719-1.71982-5.02868-3.56333-6-6.03125 3.74199-1.98545 5.3794-6.32344 7.15625-9.65625 .93416-1.75219 1.89414-3.23642 3.03125-4.0625s2.42456-1.124 4.53125-.5l.53125.15625 .40625-.375c1.78511-1.63049 3.86163-2.2156 6.1875-2.5625 2.16968-.3236 4.50045-.45334 6.8125-1.0625zm-157.71875,9.21875c.73168.43778 1.58235.64381 2.53125.6875 3.51969,3.86685 7.89721,6.55426 13.3125,6.8125a1.12076,1.12076 0 0,0 .15625.0625c.0508.0161.10525.0161.15625.0312 1.84241,2.4764 1.91676,4.25355 1.15625,6-.80606,1.85106-2.76596,3.69074-4.9375,5.71875-.30197.14487-.54739.23076-.8125.3125-1.56145-.22855-3.44638-.71086-5.34375-.78125-1.96414-.0729-4.03956.38364-5.53125,2.125l-.125.125-.0312.21875c-.17061.72105-.14163,1.3356-.0937,1.875l.0312.1875 .0937.15625c.56373.99209 1.51621,1.47415 2.40625,1.71875 .6851.18828 1.2947.25565 1.875.34375 .25084,1.00275-.006,2.03517-.5625,3.28125-.50441,1.12964-1.08631,2.37756-1.34375,3.71875-.424-.0426-.81054-.0862-1.375-.4375-.74613-.46439-1.73864-1.13381-3.03125-.96875l-.0312.0312c-1.52971.25627-2.67284.9797-3.4375,1.9375s-1.16641,2.09892-1.53125,3.21875c-.72969,2.23966-1.25274,4.36978-2.75,5.375l-.28125.1875-.0625.34375c-.13088.73803-.0629,1.38422 0,1.9375l.0312.1875 .125.1875c.77122,1.10493 1.97945,1.70872 3.21875,1.90625 .85352.13604 1.74077.084 2.5625-.125 .01.3174-.0532.56632-.1875.8125-1.58343.74147-3.26228.44697-5.03125-.46875-1.84725-.95624-3.61764-2.47216-5-3.53125l-.21875-.15625-.28125-.0312c-1.20428-.0862-2.26942.2975-3.21875.59375s-1.77634.50495-2.5625.40625a.91624,.91624 0 0,0 -.5,0c-8.6786-.95132-10.93678-2.17027-16.375-6.71875-.018-.0942-.0319-.29921-.0312-.53125 .001-.46409.12695-1.13549-.40625-1.8125-1.16717-1.48533-2.86795-2.39682-4.46875-3.25-1.42567-.75984-2.74761-1.50198-3.65625-2.375-.12998-1.80112.31607-2.9181 1.125-3.8125 .83742-.9259 2.1399-1.61338 3.65625-2.21875s3.21798-1.11388 4.78125-1.8125c1.27517-.56987 2.41981-1.35444 3.3125-2.40625 .69888.29184 1.42291.69451 2.3125,1.125 1.09268.52877 2.48039.97728 3.96875.46875l.1875-.0625 .15625-.15625c2.34629-2.09781 4.17093-4.00144 6.96875-4.125l.65625-.0312 .25-.625c3.02353-7.55837 11.26351-10.90359 18.1875-15.65625zm18.34375,8c1.16262.11955 2.32156.14851 3.375.25 1.76813.17035 3.10002.53411 3.9375,1.625l.125.15625 .15625.0937c1.12121.70183 2.3542.84934 3.46875.75s2.1548-.39861 3.125-.65625 1.88899-.45354 2.65625-.4375 1.39645.18502 2.09375.78125c1.34797,1.94564 3.1028,3.03351 4.9375,3.28125 1.92873.26044 3.86172-.23586 5.78125-.84375 3.74987-1.18754 7.45681-2.79058 10.375-2.125 5.36739,5.73742 11.75075,9.38564 15.40625,15.1875l.21875.3125 .34375.125c.5985.22411 1.19731.27517 1.90625.3125 .50764.0267 1.08598.0203 1.65625.0312 .29994.97809.975,1.89517 1.59375,2.75 .42913.59286.86261,1.13899 1.1875,1.59375 .22726.3181.26668.45155.34375.59375-.82304,1.32262-1.89389,2.10614-3.25,2.5625-1.48076.49831-3.26856.61461-5.1875.5625-3.69192-.10026-7.76014-.80095-11.0625.15625-2.56227-1.98806-5.13861-2.81123-7.5625-2.625-2.55406.19623-4.91703,1.35936-7.125,2.9375-4.30903,3.07986-8.16711,7.70437-11.65625,10.3125-3.11989.0796-6.10621,1.14623-8.3125,3.5-.0743-.0374-.14183-.0871-.21875-.125l-.0625-.0312-.0625-.0312c-.46694-.14773-.69811-.54487-1.09375-1.28125s-.99275-1.79231-2.25-2.15625l-.21875-.0625-.21875.0312c-2.93433.6177-5.85339.0392-8.9375-.46875-2.92888-.48238-6.01998-.82876-9.1875.28125-.87352-.80427-1.84382-1.79802-3.09375-2.40625-.70669-.34388-1.53088-.57778-2.375-.46875s-1.67428.57144-2.40625,1.34375l-.125.125-.0625.15625-.0937.34375a.91624,.91624 0 0,0 -.1875.21875c-.69213.23004-1.48529.33565-2.21875.21875-.83632-.1333-1.52469-.50524-2-1.09375-.0356-.35882-.0386-.69803 0-1.03125 1.83351-1.50858 2.35616-3.89884 3-5.875 .34528-1.05979.7285-1.99514 1.28125-2.6875s1.2494-1.17439 2.40625-1.375h.0312c.64488-.0713 1.16085.25482 1.90625.71875 .75612.47061 1.77022,1.08209 3.03125.8125l.625-.125v-.65625c.0221-1.1673.74285-2.54554 1.40625-4.03125s1.28125-3.1777.5625-4.9375l-.15625-.40625-.4375-.0937c-.81824-.16552-1.63879-.2211-2.3125-.40625-.62992-.17311-1.04591-.44841-1.34375-.90625-.0201-.29824-.006-.5761.0312-.84375 1.08655-1.16575 2.42256-1.52959 4.0625-1.46875 1.70836.0634 3.59874.57457 5.34375.8125l.1875.0312 .1875-.0625c.37456-.11226.78477-.26514 1.3125-.53125l.125-.0312 .0625-.0937c2.20686-2.06007 4.40435-4.00243 5.4375-6.375 .79984-1.8368.75694-3.93865-.46875-6.21875zm107.59375,1.15625c.54922-.0112 1.10716.0208 1.65625.0625a.971,.971 0 0,0 .0937.0312c1.11701,3.01663 3.79212,5.05733 6.59375,6.84375 3.05154,1.94577 6.28376,3.67045 8.03125,5.84375 1.05367,1.3107 2.95044,4.64508 4.5625,8.3125s2.94465,7.72582 3.03125,10.46875l.0312.34375 .28125.21875c.88117.66451 1.90403.75188 2.8125.65625 .57982-.061 1.12263-.16769 1.625-.28125 .52024,3.57388-3.17407,6.55807-6.53125,5.5l-.71875-.21875-.3125.65625c-.55648,1.1109-.28009,2.21965.0312,3.0625 .10042.27182.1622.50903.25.75-4.6142-1.8965-7.98765-2.84722-13-2.65625-1.53208.0581-2.80197.71122-3.875,1s-1.82908.35806-2.875-.5625l-.3125-.28125-.4375.125c-1.6775.52735-3.38343,1.41057-4.8125,1.65625-.71453.12284-1.33397.10025-1.875-.125s-1.06292-.68205-1.5625-1.5625l-.1875-.3125-.375-.0625c-.71875-.12432-1.39854-.17206-2.03125-.0937s-1.20955.2955-1.6875.625l-.375.25 .0312.4375c.33416,4.90531-2.8036,9.14676-5.8125,13.125a.82968,.82968 0 0,0 -.28125.25c-1.43472.64264-2.8954.77853-4,.40625-1.19189-.4017-2.05461-1.31266-2.3125-3.1875l-.0625-.40625-.375-.1875c-1.12572-.60096-2.19615-.67443-2.96875-1.28125l-.21875-.15625-.25-.0312c-.84041-.0111-1.69417.1228-2.59375.34375l-.28125.0625-.15625.25c-.45083.67461-1.21052,1.25692-2,1.90625-.60151.49473-1.22951,1.04535-1.6875,1.78125-3.72162-.14067-7.29245.47772-10.28125-.8125 .3535-4.88962.36665-9.95709-2.125-14.65625 .0745-.28741.24665-.7081.46875-1.125 1.1247-.36517 2.01714-1.12705 2.5-2.15625 .57315-1.22164.80405-2.6817.9375-4.1875s.15337-3.04669.21875-4.40625 .21162-2.55012.4375-3.15625a.89354,.89354 0 0,0 -.59375-1.21875c-.14427-.2618-.32801-.49678-.53125-.78125-.35552-.49763-.77975-1.03043-1.1875-1.59375-.54631-.75476-.98431-1.57267-1.21875-2.15625 3.18359-1.09454 5.21274-3.3648 6.90625-5.71875 1.79177-2.49052 3.32254-5.04979 5.5-6.8125 3.28743-.0462 6.49157-.95563 9.53125-1.59375 3.20609-.67306 6.1886-.97933 9.09375.25l.34375.15625 .3125-.0937c5.04712-1.4196 9.83898-3.40218 14.625-3.5zm-172.71875,21.46875c1.16188,1.11658 2.66025,1.8464 4.0625,2.59375 1.58795.84632 3.04842,1.68958 3.90625,2.78125-.0512-.065.0327.25434.0312.75-.00071.24783.002.52427.0625.84375s.21322.73909.5625,1.03125c5.44381,4.55498 8.42203,6.05428 16.9375,7.03125-1.25026,4.02679-3.69511,7.49478-6.9375,10.25l-.1875.1875-.0625.25c-.19305,1.1096-.56984,1.86749-.6875,2.8125l-.0312.21875 .125.21875c1.46135,2.61982 3.62106,4.40238 5.71875,6.0625 1.92926,1.52682 3.76961,2.95566 5.0625,4.8125-.58887.74632-1.04325,1.40307-1.40625,1.59375l-.28125.15625-.0937.28125c-.26985.69909-.29048,1.40731-.125,2s.46203,1.09024.75,1.53125c.54377.83275.97237,1.4726 1.03125,2.125-.39701,1.10454-1.02188,2.18953-1.875,2.9375-.89772.78706-1.95367,1.23209-3.1875,1.09375l-.375-.0312-.28125.25c-.95603.89985-1.82441,2.00795-1.84375,3.3125v.375l.28125.25c1.08839.92743 2.39208,1.83784 3.28125,2.84375 .81103.91751 1.2737,1.80446 1.15625,3.03125a.88439,.88439 0 0,0 -.0937.1875c-1.44584,1.22046-2.23388,2.66564-2.5625,4.15625-.35666,1.61778-.21067,3.29002 0,4.875s.50393,3.1012.53125,4.46875c.0232,1.16475-.16478,2.16735-.65625,3.0625a.9861,.9861 0 0,0 -.25.15625c-6.33206.17309-11.50563-2.95936-16.53125-6.78125-5.18334-3.94184-10.12797-8.57637-16.03125-10.6875-4.33607-1.5504-8.92768-1.13839-12.90625-.9375-3.67321.18547-6.72104.15233-8.6875-1.375a1.03125,1.03125 0 0,0 -.1875-.46875c-1.16009-4.41385.59452-7.36311 2.875-10.5625 2.26472-3.17728 5.07422-6.49149 5.34375-11.09375 1.9434-1.47554 3.84075-3.59143 5.21875-6.03125 1.36576-2.41814 2.19529-5.10163 1.78125-7.59375 3.24632-3.28639 5.10732-7.16738 9.0625-8.875l.59375-.25v-.625c-.001-2.71792.46081-5.8747 1.625-8.40625 1.10962-2.41288 2.74997-4.21092 5.28125-4.8125zm228.78125,1.46875c.13987-.01.29291.004.4375,0a1.06531,1.06531 0 0,0 .1875.125c1.73794.81897 2.97522,2.65531 4.34375,4.65625 1.26068,1.84325 2.73544,3.81021 5.125,4.6875 .74766,2.36149 1.4192,4.88559 2.59375,7.21875 1.18367,2.35128 3.01,4.46271 5.78125,5.8125 1.63142,4.33449 3.30343,8.06132 6.46875,11.5625 2.77331,3.06849 6.24282,4.22626 8.34375,5.75 1.05046.76187 1.76868,1.51179 2.125,2.6875 .33414,1.10252.32346,2.67963-.25,4.9375-2.14795.33729-4.27113.82465-6.25,1.125-1.41026-1.8402-3.19331-2.92965-4.875-3.8125-1.83964-.96577-3.50906-1.80827-4.78125-3.4375l-.1875-.25-.3125-.0625c-.85751-.18778-1.59586-.0643-2.09375.0625l-.46875.0937-.15625.46875c-.53772,1.67105-1.51812,2.57236-2.9375,3.15625s-3.27159.76837-5.3125.78125c-3.87173.0245-8.27701-.62628-11.71875.28125a.99225,.99225 0 0,0 -.0937-.0312c-.95698-.95289-2.15132-1.68326-3.09375-2.46875-.98208-.81854-1.56444-1.59312-1.65625-2.59375 .97127-.62516 1.85791-1.23985 2.40625-1.78125 .65942-.65108 1.06402-1.26276 1.15625-1.96875s-.30746-1.39003-.84375-1.75-1.17709-.54023-1.90625-.625c-2.79272-.32469-6.9964.60104-9.65625,2.875-.70263-.0706-1.04726-.34845-1.4375-.96875-.43259-.68761-.78454-1.70443-1.4375-2.59375l-.25-.34375h-.4375c-3.47029.0566-5.51877-1.69849-7.21875-4.3125-1.62769-2.50285-2.7693-5.75187-4.0625-8.59375a.79753,.79753 0 0,0 -.0937-.3125c-.046-.96233-.41306-1.74801-.65625-2.40625-.16962-.4591-.10324-.74164-.0937-1.0625 4.3638.57697 8.53851-3.42289 7.59375-8 1.61852-1.59589 3.70575-2.2375 6.03125-2.375 2.47268-.1462 5.17454.31356 7.5625.90625l.375.0937 .34375-.21875c2.15719-1.5899 3.82616-3.50307 5.6875-4.9375 1.62867-1.25513 3.34093-2.20798 5.71875-2.375zm-127.09375,1.96875c1.87739.0404 3.82783.7582 5.96875,2.53125l.34375.28125 .4375-.15625c2.7005-.91278 6.86536-.26514 10.875-.15625 2.00482.0545 3.99139-.0227 5.78125-.625 .96745-.32557 1.8875-.816 2.6875-1.5-.0183.28249-.0483.54778-.0625.84375-.0675,1.40358-.0934,2.9297-.21875,4.34375s-.33901,2.71775-.75,3.59375-.87879,1.29839-1.71875,1.40625l-.4375.0625-.21875.375c-.34197.6011-.71542,1.30096-.84375,2.0625l-.0625.3125 .1875.28125c2.48603,4.38527 2.40773,9.22308 2.03125,14.25a1.0114,1.0114 0 0,0 -.15625.34375c-4.52866,2.61173-9.30756,5.57152-11.375,10.96875-2.15533.0142-3.89666.5687-5.25,1.5625-1.45984,1.07201-2.50686,2.5411-3.34375,4.15625-1.62073,3.12792-2.64443,6.74744-4.4375,9.21875-3.29246.39726-7.65413-.78579-10.03125-2.84375 .78563-2.05727.23831-3.90164-.75-5.40625-1.04333-1.58837-2.48889-2.9555-3.4375-4.3125-.14589-.44432-.16158-.81221-.0312-1.21875 .13695-.42738.41902-.89811.75-1.40625 .66195-1.01629 1.5752-2.25068 1.4375-3.875v-.0312c-.12255-.92095-.49196-1.6689-.6875-2.78125l-.0625-.375-.375-.15625c-3.77673-1.71204-6.63736-4.40477-7.625-7.21875s-.30266-5.81133 3.46875-8.78125l.375-.28125-.0937-.46875c-.14225-.66475-.48392-1.37339-.90625-2.1875 3.71557-2.82801 7.46799-7.31906 11.4375-10.15625 2.0689-1.47874 4.16159-2.46214 6.28125-2.625 .26496-.0204.5443-.037.8125-.0312zm-55.1875,10.125c.31811.0143.65461.12924 1.03125.3125 1.00436.48873 2.13265,1.57888 3.125,2.46875l.40625.34375 .5-.1875c2.86984-1.14932 5.68711-.84305 8.71875-.34375 2.90674.47873 5.98929,1.07453 9.21875.5 .53618.17201.78161.55271 1.15625,1.25 .36651.68216.91077,1.64255 2,2.0625v.0312l.125.0625 .4375.21875c.44293,1.27056.35227,2.78125.15625,4.28125-2.02469.99653-4.28734,1.81685-6.375,3-2.23256,1.26527-4.27218,2.96692-5.375,5.75l-.15625.40625 .21875.375c.75055,1.21362.81129,1.93188.625,2.53125s-.71739,1.18319-1.5,1.78125c-1.46221,1.1174-3.70974,2.17499-4.78125,4.1875-1.96818.91342-4.30344.79031-5.96875-.65625l-.34375-.3125-.4375.125c-1.56554.40183-2.73737,1.42624-3.875,2.21875s-2.1746,1.36967-3.5,1.28125c-1.12313-.50291-2.26752-.71203-3.3125-.84375-1.08121-.13629-2.02705-.31374-2.84375-.71875-.46145-1.19051-1.07134-2.36228-2.03125-3.25-.97766-.90414-2.33256-1.4609-3.875-1.34375-1.46057-2.1501-3.46004-3.67851-5.40625-5.21875-2.0128-1.59294-3.92382-3.2117-5.21875-5.40625 .10298-.51519.35602-1.25054.5625-2.25 3.39644-2.945 5.96314-6.66 7.25-11 1.01357.0115 1.93821-.24666 2.75-.5 .89943-.28068 1.65784-.47622 2.34375-.46875 1.29387,1.00746 2.98371,2.44118 4.96875,3.46875 2.11,1.09226 4.6332,1.68892 6.96875.4375l.15625-.0937 .125-.15625c.72978-.97961.75891-2.16197.46875-3.3125l.0937-.28125c.47165-.46373.8989-.66937 1.28125-.71875 .1029-.0133.20646-.036.3125-.0312zm35.34375,3.3125c.30103.6119.50492,1.12762.625,1.5625-3.70429,3.14832-4.69881,6.79368-3.5625,10.03125 1.14869,3.27284 4.22255,6.03903 8.09375,7.875 .22297,1.00417.52393,1.82447.59375,2.3125 .00089.006-.00082.0252 0,.0312 .0684.97035-.53438,1.85555-1.21875,2.90625-.34577.53086-.69339,1.08575-.90625,1.75s-.25397,1.45967.0312,2.25l.0312.0937 .0312.0625c1.08864,1.60727 2.60663,2.99861 3.53125,4.40625 .88609,1.34899 1.27882,2.55657.53125,4.25-1.4249,1.13932-3.48071,2.3358-4.78125,3.9375-.66291.81642-1.12307,1.82432-1.0625,2.9375 .053.97362.56541,1.95518 1.4375,2.96875-.0614.16327-.1612.32669-.25.5-2.55259.74942-5.11351,2.41543-6.0625,5.15625l-.0937.25 .0625.25c.41752,1.27685.69527,2.51968.8125,3.8125-5.06908.81413-9.56246,2.86395-14.1875,3.8125-.16417-.0965-.34892-.17741-.53125-.28125-.0997-.37204-.16429-.86004-.125-1.375 .0465-.6089.1946-1.18918.28125-1.40625l.3125-.78125-.75-.34375c-2.39795-1.1417-4.74556-2.83718-7.59375-3.625-4.08812-1.13033-8.60044-.24415-12.28125-.21875-1.8404.0127-3.44421-.19701-4.65625-.8125s-2.12911-1.59105-2.6875-3.53125l-.0937-.34375-.28125-.15625c-3.18555-2.09878-6.82727-2.3701-9.8125-3.625 .0662-1.63933-.65497-3.0317-1.59375-4.09375-.94262-1.06639-2.06441-1.8368-3-2.59375 .10239-.44719.46442-1.0749 1.0625-1.6875 1.49569.005 2.87204-.53077 3.90625-1.4375 1.16903-1.02494 1.998-2.39365 2.46875-3.8125l.0312-.125v-.15625c-.0187-1.37876-.82594-2.33202-1.34375-3.125-.2589-.39649-.44451-.75182-.53125-1.0625-.0756-.27064-.0626-.53717.0312-.84375 .71695-.53069 1.1974-1.21926 1.6875-1.84375 1.06735-.0876 1.8573.28534 2.5625.9375 .77388.71568 1.38058,1.8182 1.78125,2.96875l.0937.3125 .28125.15625c1.20827.67048 2.49764.8227 3.65625.96875s2.20854.28608 3.09375.75l.15625.0625 .1875.0312c1.8826.12558 3.33913-.74151 4.5625-1.59375 1.12196-.78159 2.09418-1.48041 3.0625-1.8125 2.22302,1.60892 5.14844,1.74815 7.53125.5625l.28125-.15625 .125-.28125c.59293-1.43313 2.67746-2.53737 4.46875-3.90625 .89564-.68444 1.74086-1.45837 2.09375-2.59375 .30822-.99165.0539-2.18167-.59375-3.4375 .94833-2.19063 2.52976-3.5709 4.5-4.6875 2.04944-1.16148 4.44853-2.01934 6.71875-3.1875l.40625-.1875 .0625-.4375c.2378-1.65351.44839-3.56299-.15625-5.375 1.80849-1.98065 4.24512-2.8657 6.96875-2.96875zm81.875,2.6875c.20095-.001.40229.007.625.0312 .57915.85321 1.23275,1.49307 2,1.8125 .89997.37469 1.84603.37416 2.75.21875 1.71702-.29519 3.36039-1.11363 4.78125-1.59375 1.29667.87162 2.66142.96603 3.8125.65625 1.29947-.34972 2.45333-.92786 3.53125-.96875 5.19929-.1981 8.32037.79901 13.5,3 1.26289,2.76111 2.43463,6.14604 4.25,8.9375 1.77867,2.73501 4.36899,4.85742 8.125,5 .37666.60115.70933,1.40902 1.21875,2.21875 .57416.91264 1.57684,1.79195 3.03125,1.8125h.3125l.25-.21875c2.05166-1.95559 6.43589-2.98416 8.71875-2.71875 .57072.0663.97348.22107 1.15625.34375s.17117.042.15625.15625-.19942.51849-.71875,1.03125-1.3505,1.14001-2.5625,1.875l-.375.25-.0312.4375c-.0657,1.87426 1.11608,3.22676 2.34375,4.25 1.03767.86488 2.13991,1.58381 2.90625,2.3125-.50301,2.28491-1.31395,4.65951-1.21875,7.3125-1.68486-.37535-3.38224-.48157-4.96875-.6875-2.01086-.26101-3.80812-.65377-5.21875-1.75l-.375-.28125-.4375.15625c-3.70839,1.34195-8.61575.95768-12.21875,2.3125-1.24273.46729-1.97534,1.4283-2.59375,2.21875s-1.14595,1.40037-1.90625,1.6875c-3.70618,1.39892-7.65992,1.56725-11.59375,2.09375s-7.88875,1.44698-11.25,4.53125l-.15625.15625-.0625.1875-.0312.0937c-.865.22566-1.66646.53546-2.40625.71875-.77949.19313-1.46404.15006-2.15625-.0625-2.86814-6.41436-3.91313-13.26854-6.28125-19.65625 .70871-.48081 1.70733-.54556 2.78125-.84375l1.125-.3125-.6875-.96875c-2.32579-3.24891-3.84726-8.73271-7.40625-12.3125 2.83193-3.74711 5.93115-8.00935 5.875-13.1875 .29986-.14099.8034-.24626 1.40625-.25zm-19.34375,9.78125c1.0001.64518 1.97429.90409 2.625,1.1875 .44837,2.00308 1.61945,3.40902 3.1875,3.9375 1.54104.51938 3.2992.31164 4.96875-.40625 2.89124,2.84998 4.49164,7.51206 6.75,11.125-.8926.13115-1.96359.34129-2.875,1.34375l-.34375.375 .1875.46875c2.49906,6.44226 3.44433,13.80906 6.6875,20.84375l.125.28125 .3125.125c1.21458.50148 2.42458.3837 3.46875.125 .80002-.19821 1.50984-.43171 2.1875-.625 .95968,2.90974 1.72923,5.90624 2.65625,8.71875-.50282.42863-1.1852.86427-1.84375,1.5-.78161.75452-1.4538,1.88388-1.125,3.21875l.0625.3125 .28125.1875c2.10201,1.22181 3.26341,3.2447 4.75,5.03125 1.33386,1.603 3.15689,2.88209 5.9375,2.8125-.0294.27473-.0145.51012-.1875.90625-.25889.59293-.63787,1.33798-.59375,2.25-.84426,3.53818-2.01237,4.97026-5.34375,6.5625-1.13929.54493-3.73249,1.01044-6.3125,1.0625s-5.22793-.31187-6.46875-.96875c-2.59792-1.37534-3.61573-3.5177-4.625-5.71875s-2.03967-4.55384-4.75-5.53125l-.28125-.0937-.28125.125c-1.57013.63563-2.85438,1.75158-3.9375,2.875l-.15625.15625-.0312.21875c-.32426,1.65561-.68046,3.31869-1.34375,4.6875-.5988,1.23573-1.41347,2.2449-2.71875,2.9375a.92307,.92307 0 0,0 -.0937,0c-2.18525-.11451-3.37023-1.72032-4.9375-3.4375-.78363-.85859-1.66526-1.72822-2.8125-2.28125-.57362-.27652-1.20003-.44667-1.90625-.5s-1.48809.0189-2.3125.25a.92505,.92505 0 0,0 -.15625.0625c-4.6177-.69053-8.19877-2.86385-9.53125-5.28125-1.00724-1.82763-1.21589-3.42416-.90625-4.96875s1.17943-3.0446 2.375-4.53125c2.39114-2.9733 6.10887-5.79262 9.09375-8.75l.21875-.21875v-.28125c.1811-2.3104 1.22364-4.12062 2.53125-5.90625s2.88517-3.48503 4.0625-5.5l.28125-.46875-.34375-.40625c-1.53211-1.86942-2.07593-3.66301-2.15625-5.53125s.34114-3.82009.8125-5.84375c.88798-3.81236 1.9533-8.00112-.34375-12.28125a1.0114,1.0114 0 0,0 0-.71875c.31587-.42588.74253-.83262 1.25-1.25 .64116-.52734 1.32762-1.18005 1.9375-1.9375 .71677-.16818 1.35644-.25021 1.96875-.25zm-18.09375,3.59375c3.85213,1.88846 7.98697,1.04009 11.5625,1.1875 2.1075,3.8152 1.15193,7.44024.25,11.3125-.47439,2.03671-.93537,4.11877-.84375,6.25 .084,1.95492.75974,3.96273 2.1875,5.90625-1.05028,1.68605-2.45882,3.26805-3.75,5.03125-1.3082,1.78643-2.42428,3.84447-2.71875,6.34375-2.85839,2.80496-6.5602,5.63086-9.09375,8.78125-1.2868,1.6001-2.28005,3.3109-2.65625,5.1875s-.0893,3.91013 1.0625,6c1.63093,2.95887 5.4363,5.13978 10.1875,5.9375-.58276,1.5438-1.71548,2.37789-3.21875,2.90625-1.69808.59683-3.80458.71637-5.71875.75-3.61816-2.54973-8.38079-2.09133-12.15625-.53125-.16359-.0536-.33134-.14698-.5-.21875-.42607-1.4059-.14549-3.01224.25-4.8125 .4229-1.92501.88892-4.06493-.0625-6.125l-.25-.5625-.625.125c-5.76247.95976-11.70196,1.44046-17.84375,1.90625-1.95754-1.95024-4.13662-3.5555-5.71875-5.375-1.64943-1.89689-2.65662-3.90886-2.25-6.90625l.0625-.59375-.53125-.21875c-.63779-.2702-1.3106-.47679-1.875-.625-.38763-.10179-.55512-.15996-.75-.21875-.10837-1.41256-.42967-2.75771-.84375-4.09375 .81119-2.14058 3.07399-3.61938 5.34375-4.1875l.3125-.0937 .1875-.28125c.29115-.50922.43575-.96959.5625-1.34375l.15625-.4375-.34375-.34375c-.97025-.99629-1.30938-1.77449-1.34375-2.40625s.23616-1.21092.75-1.84375c.9249-1.13908 2.6369-2.25902 4.125-3.40625 2.91303,2.50972 7.67927,3.72459 11.5,3.125l.3125-.0312 .15625-.25c2.18892-2.83609 3.19053-6.70905 4.75-9.71875 .77974-1.50485 1.68244-2.78051 2.875-3.65625s2.68897-1.38833 4.8125-1.3125l.5625.0312 .15625-.53125c1.74661-5.14031 6.3231-7.98035 10.96875-10.65625zm120.25,11.1875c.14535-.008.30521.007.46875.0312 1.50016,1.73139 3.33838,2.70503 5.03125,3.59375 1.81336.95198 3.41973,1.87235 4.625,3.6875l.3125.4375 .53125-.0625c2.25724-.31359 4.62801-.89963 6.875-1.25a1.06891,1.06891 0 0,0 .0312.0312c4.05882,4.77361 7.18627,12.48887 5.09375,18.65625l-.15625.46875 .25.375c2.1751,3.59044 2.05541,7.40992.875,11.1875s-3.4338,7.45334-5.46875,10.40625l-.5625.78125 .78125.59375c.83538.62173 1.05451,1.23361 1.03125,2-.0189.62269-.29275,1.3411-.6875,2.03125-2.70587-.97177-5.45232-1.06825-8.1875-.84375-3.0302.24871-6.06868.89335-9.03125,1.1875l-.375.0312-.1875.3125c-1.04817,1.72047-1.69325,3.48873-2.6875,5-.44904.2339-.90685.476-1.28125.59375-.37942.11932-.64443.10402-.9375-.0312-.74884-1.52178-1.70351-2.84863-2.625-4.15625 .25687-1.2513.24556-3.03097-.0937-4.34375a1.06916,1.06916 0 0,0 -.0937-.25c1.23007-6.94124-1.85907-12.64706-5.03125-18.0625-3.28165-5.60232-6.60241-10.93988-5.9375-17.34375l.0312-.28125-.125-.21875c-.20437-.36112-.42079-.7216-.625-1.15625l-.0625-.15625-.125-.0937c-.7882-.70846-1.7311-.89508-2.53125-.96875-.50665-.0467-.96585-.0733-1.375-.125-.21418-2.35717.52511-4.63446 1.09375-7.1875 2.85682-.70209 7.17245-.22465 11.1875-.25 2.13684-.0135 4.19306-.17579 5.96875-.90625 1.58411-.65165 2.83708-1.90576 3.59375-3.65625 .13007-.0248.2609-.0549.40625-.0625zm-35.03125,10.6875c1.6997,1.15679 3.65388,1.62321 5.59375,1.875 1.88069.24411 3.74268.36591 5.4375.8125a.99225,.99225 0 0,0 1.4375.34375c.55786.071 1.0788.0834 1.53125.125 .63424.0584 1.0769.21422 1.46875.53125 .15287.30746.29559.59131.4375.84375-.57747,6.90598 2.94773,12.55378 6.15625,18.03125 3.14163,5.36328 5.95633,10.52807 4.875,16.8125-.48586-.14874-1.00343-.31386-1.59375-.40625-.79189-.12393-1.70688.11494-2.4375.78125-3.87451-.94207-7.56589.46618-10.78125,2.21875-3.32065,1.80996-6.29616,3.93468-8.4375,4.375-1.98751.40906-4.78904-.17106-7.6875-.28125-2.80304-.10656-5.79515.37024-8.09375,2.90625-1.48767.35268-2.93561-.10939-4.5625-.5625-1.42781-.39766-3.01394-.73762-4.6875-.125-.66979-2.8928-1.84436-5.47959-1.78125-8.21875l.0312-.375-.28125-.21875c-.36607-.29464-.73589-.57697-1.03125-.875l-.0937-.125-.125-.0312c-.76291-.32342-1.58353-.37062-2.34375-.4375-.50249-.0442-.97693-.10175-1.34375-.1875 .0667-.33576.23016-.71262.4375-1.1875 .29373-.67274.63655-1.57823.3125-2.5625l-.1875-.59375-.65625.0937c-2.88916.39578-4.11309-.65205-5.46875-2.28125-1.2697-1.52589-2.5642-3.56825-4.78125-5.03125-.10366-.62266.15002-1.04473.71875-1.59375 .61064-.58948 1.49991-1.12076 2.1875-1.8125l.34375-.34375-.15625-.46875c-1.00484-2.96268-1.84392-6.27833-2.9375-9.53125a.82968,.82968 0 0,0 0-.15625c.003-.009-.003-.0219 0-.0312 2.97426-2.65046 6.42747-3.49676 10.1875-4 3.82542-.512 7.93893-.66642 11.96875-2.1875 1.2627-.47687 2.00416-1.4252 2.625-2.21875s1.11848-1.41479 1.84375-1.6875c2.9018-1.09115 7.74045-.8384 11.875-2.21875zm-244.15625,5.09375h.0312c2.51606,2.03091 6.06889,1.97027 9.8125,1.78125 4.02268-.20311 8.37532-.55285 12.28125.84375 5.46072,1.95287 10.32384,6.46109 15.59375,10.46875 5.07834,3.86198 10.59054,7.2682 17.40625,7.125 .17435.4065.41374.77416.6875,1.03125 .422.3963.87097.6303 1.25.84375s.69217.39315.875.5625 .24054.30156.28125.5625a.9967,.9967 0 0,0 .0625.15625c-.34919.72968-.90963,1.15179-1.625,1.5625-.87494.50232-2.00297.89902-3.0625,1.6875-9.13319,6.79975-11.34529,12.73357-14.375,21.90625-1.61394,1.10221-3.02167,1.40197-4.4375,1.28125-1.47143-.12546-2.94804-.72002-4.46875-1.4375s-3.08985-1.5388-4.75-2.03125c-1.48894-.44166-3.09609-.50164-4.75,0-.68571-.82812-1.46643-1.41278-2.3125-1.59375-.9861-.21092-1.94709.038-2.84375.4375-1.63663.72927-3.09359,2.03119-4.28125,3.09375-.31067-.10384-.62801-.21107-1.03125-.4375-.15777-.55937-.30283-1.12378-.6875-1.4375-.51961-.42378-1.14786-.55295-1.71875-.59375-1.05684-.0755-2.04515.0329-2.71875-.0937-.53171-.85771-1.07744-1.82027-1.8125-2.71875-.82086-1.00334-1.88575-1.90858-3.34375-2.15625l-.34375-.0625-.28125.21875c-3.00322,2.37852-6.52868,3.39259-10.34375,4.125-2.97379-.95252-5.02499-3.20468-7.3125-5.625l-.25-.28125-.375.0312c-1.86886.19615-3.20401-.33253-4.4375-1.25s-2.32055-2.26313-3.4375-3.65625-2.2649-2.83882-3.75-3.875c-1.22521-.85485-2.71218-1.38019-4.46875-1.34375 .0136-1.08149.18375-1.73276.4375-2.625 1.33796-1.01957 3.00403-1.16326 4.90625-.75 1.98466.43117 4.07733,1.44972 5.71875,2.40625l.375.21875 .4375-.125c1.66417-.47101 2.67916-.93099 3.40625-1.1875l.34375-.125 .1875-.28125c.74266-1.16138 1.63029-2.31701 2.34375-3.625 .58864-1.07915.956-2.34748 1-3.75 1.10685-.30564 2.45676-.5532 3.78125-1.15625 .77654-.35356 1.52197-.81903 2.09375-1.53125s.94427-1.69274.9375-2.78125v-.15625l-.0625-.125c-.83265-2.67011-.15746-6.1169 1.5625-8.84375 1.71419-2.7177 4.36578-4.65707 7.46875-4.6875zm59.09375,3.21875c3.34156,1.47056 6.84824,1.7092 9.5625,3.4375 .69849,2.01537 1.84452,3.45742 3.34375,4.21875 1.62327.82432 3.5054.9823 5.46875.96875 3.92669-.0271 8.29462-.78517 11.8125.1875 2.25633.62411 4.38381,2.00986 6.71875,3.1875-.0862.36845-.21563.67453-.25,1.125-.059.77385-.0348,1.62059.28125,2.40625l.0937.28125 .28125.15625c.42735.23601.79701.44411 1.15625.65625l.28125.1875 .34375-.0625c5.27469-1.01888 9.99599-3.34584 15.125-4.03125 .29678.10564.61655.18876.96875.28125 .39886.10474.79543.2406 1.1875.375-.21343,3.09826.93487,5.52506 2.625,7.46875 1.72066,1.9788 3.88692,3.56975 5.71875,5.375a.79448,.79448 0 0,0 0,.0312c-1.06961,2.71509-2.92802,5.25243-3.21875,8.59375-4.84397,4.15442-11.21224,8.77775-15.9375,14.3125-4.72805,5.53802-7.77143,12.10927-5.65625,19.84375-.57493,2.32367-1.47468,4.82268-1,7.53125l.0312.125 .0625.0937c-.14591.12349-.29436.19377-.46875.25-.97359-2.54542-2.69316-4.46053-4.375-6.21875-1.883-1.96852-3.70367-3.74441-4.6875-5.90625-2.45195-5.38686-1.91722-13.05726-4.09375-19.28125-.43645-1.24827-1.28032-2.08751-1.875-2.90625s-.9818-1.51553-.84375-2.6875l.0937-.71875-.6875-.15625c-2.62171-.56724-4.88101.15847-7.03125-.5625-.82799-.87008-1.74732-1.4423-2.1875-2.21875 .52257-1.26473.62097-2.51917.375-3.6875-.27831-1.32195-.88609-2.56409-1.5625-3.75-1.35282-2.37183-2.88248-4.59821-2.90625-6.9375v-.28125l-.1875-.21875c-.29607-.35825-.54236-.66256-.6875-1l-.0937-.25-.21875-.125c-.4071-.22492-.89744-.47245-1.5-.59375l-.28125-.0625-.21875.125c-1.51587.80485-2.94095.50047-4.53125-.1875-.16314-.57464-.51584-1.04233-.875-1.375-.42051-.3895-.84241-.63182-1.21875-.84375s-.6894-.3882-.875-.5625c-.1575-.14792-.23237-.29572-.28125-.5 .70442-1.23837.87103-2.60303.84375-3.96875-.0312-1.56082-.32842-3.13023-.53125-4.65625s-.28684-2.98016 0-4.28125c.25588-1.16065.78693-2.21429 1.90625-3.1875zm.5,20.84375h.0312c1.67841.68844 3.50968,1.04562 5.375.21875 .23895.0683.50297.19377.78125.34375 .17519.31112.3398.60765.53125.84375 .13723,2.84588 1.83624,5.23277 3.09375,7.4375 .64984,1.13934 1.18562,2.23326 1.40625,3.28125s.17096,2.03304-.40625,3.15625l-.1875.34375 .15625.3125c.70472,1.62337 2.20806,2.32709 2.78125,3l.125.15625 .1875.0625c2.55891.92506 4.81467.35244 6.84375.625 .0743,1.19843.47667,2.20522 1.03125,2.96875 .68332.94076 1.3637,1.66327 1.65625,2.5 2.01147,5.75201 1.4502,13.46111 4.15625,19.40625 1.14917,2.52516 3.151,4.41077 5,6.34375 1.64009,1.71458 3.14256,3.44397 4,5.65625a1.08981,1.08981 0 0,0 -.0625,1.21875c-.0791.81013.15542,1.57431.375,2.15625 .24842.65836.44223,1.16733.46875,1.5625-4.18395,3.67719-9.20541,4.25394-14.6875,4.53125-5.46735.27657-11.31354.28651-16.71875,3.03125-3.47797-1.88574-7.22152-3.44954-11.53125-3-.19172-1.70813-.75902-3.21905-.90625-4.59375 .64539-.42955 1.65982-.83243 2.625-1.53125l.21875-.15625 .0625-.28125c1.09653-3.81685-.52814-7.39564-3.09375-10.1875-2.4527-2.66899-5.78346-4.6869-8.71875-5.8125-.16613-1.87093 1.12665-3.74438 2.34375-5.78125 .65272-1.09236 1.2544-2.21956 1.4375-3.46875s-.11501-2.60231-1.15625-3.875l-.0937-.125-.15625-.0625c-2.55979-1.1624-4.23979-3.04802-5.875-5.34375 3.01907-9.14856 4.92023-14.53586 13.8125-21.15625 .82847-.61652 1.90344-1.00007 2.9375-1.59375 .83324-.47838 1.6347-1.16241 2.15625-2.1875zm82.78125,4.09375c.41166,1.36135.21379,2.87811-.15625,4.5625-.4191,1.90774-.95949,3.97827-.15625,6.03125l.125.28125 .25.15625c.51489.26702.97219.38325 1.34375.5l.28125.0937 .25-.125c3.35036-1.46444 7.54897-1.92055 10.625,0-2.8944,4.06763-6.19905,8.09406-9.375,11.625l-.25.25 .0625.34375c.10087.70753.44816,1.38717.78125,1.96875l.1875.28125 .34375.0625c1.16591.20751 2.03168.75623 3.03125,1.34375 .0484.10589.0582.21693.0937.3125-.76337.51418-1.60368.87861-2.59375,1.1875-1.1696.3649-2.44761.74724-3.59375,1.625l-.3125.21875v.375c.055,3.62264-.1619,8.04016.96875,11.71875a1.01665,1.01665 0 0,0 -.0625.15625c-.37767,1.36498-1.04591,1.71202-2.1875,1.96875s-2.65904.18179-4.125.375a1.01665,1.01665 0 0,0 -.65625.21875c-4.25809.0985-7.87263-.66648-11.5-1.1875-1.92034-.27583-3.86026-.45965-5.875-.40625s-4.12006.34892-6.375,1.09375c-2.08011.6874-3.23428,2.28667-4.46875,3.28125s-2.38883,1.60467-5.03125.71875l-.40625-.15625-.3125.25c-1.13293.81328-2.33001,1.50184-3.625,2.0625a1.08981,1.08981 0 0,0 -.1875-.0625c-.31041-2.18845.45057-4.45264 1.03125-6.84375l.0312-.1875-.0312-.1875c-2.09603-7.29082.66983-13.31734 5.28125-18.71875s11.02504-10.05134 15.96875-14.3125l.25-.21875 .0312-.3125c.14433-3.00817 1.99571-5.43821 3.1875-8.53125 5.85715-.4449 11.5703-.9222 17.15625-1.8125zm44.125,2.03125c1.85376.81131 2.63206,2.46522 3.59375,4.5625 1.01473,2.21295 2.26442,4.82384 5.3125,6.4375 1.77018.93712 4.49626,1.17994 7.21875,1.125s5.33379-.42043 6.9375-1.1875c3.36335-1.60751 5.04888-3.56366 6-6.96875 .48708.1113.9914.17676 1.46875.21875 .7469.0657 1.43051.15119 1.84375.3125 .24755.23606.50026.45277.75.65625 .0428,3.09065 1.22547,5.76698 1.8125,8.4375a.94349,.94349 0 0,0 0,.0312c-2.46258,5.03043-.7212,10.24-.375,14.90625-2.17315,3.06754-4.01031,6.91422-4.15625,11-1.5559.72778-2.70961,1.78847-3.75,2.59375-1.09357.84645-1.9992,1.36474-3.46875,1.1875a.9654,.9654 0 0,0 -.375-.0937c-2.42773-2.43035-5.04829-5.63356-8.0625-7.6875-1.59502-1.08687-3.34475-1.87185-5.21875-1.9375-1.67769-.0588-3.41622.59844-5.1875,1.84375-1.54266-1.60185-3.20695-3.22363-5.1875-4.5625 .26496-4.29827 1.67186-8.91323 1.75-13.875v-.40625l-.3125-.25c-2.59425-1.99351-5.75524-3.7916-7.96875-5.9375 1.39698-.85533 2.35795-2.05001 3-3.375 .73972-1.52654 1.08979-3.21212 1.40625-4.8125 .89768-.91288 1.89175-1.71651 2.96875-2.21875zm-221.65625.4375c1.54462-.0966 2.7005.37093 3.78125,1.125 1.23515.86179 2.32445,2.17425 3.4375,3.5625s2.25699,2.85025 3.71875,3.9375c1.35015,1.00424 3.04645,1.59083 5.0625,1.5 2.23257,2.37229 4.48126,4.88879 7.9375,5.9375l.15625.0625 .1875-.0625c3.85344-.72471 7.62001-1.75449 10.90625-4.21875 .86596.21653 1.55397.72563 2.1875,1.5 .69164.84541 1.27532,1.92123 1.90625,2.90625l.15625.25 .28125.0937c1.20701.34458 2.42603.0661 3.25.125 .41199.0294.68139.11759.84375.25s.33942.35414.40625.9375l.0312.375 .34375.21875c.68515.396 1.26411.65546 1.90625.8125l.375.0937 .3125-.28125c1.26593-1.12089 2.83583-2.5261 4.25-3.15625 .70709-.31507 1.34266-.43305 1.90625-.3125s1.12885.45852 1.71875,1.3125l.34375.5 .5625-.21875c1.48727-.58726 2.86071-.49314 4.3125-.0625s2.93496,1.23036 4.5,1.96875 3.23824,1.40962 5.03125,1.5625c1.60961.13724 3.31771-.20398 5.0625-1.28125 1.59298,2.18467 3.39456,4.10938 6,5.375 .006.003-.006.0286 0,.0312 .81673,1.00897 1.00819,1.84132.875,2.75-.13431.91631-.6246,1.89086-1.25,2.9375-1.09445,1.83161-2.64543,3.85209-2.625,6.1875-2.13593-.055-4.30953.376-6.03125.28125-.97904-.0539-1.76928-.24222-2.375-.6875s-1.08722-1.15708-1.375-2.46875l-.15625-.65625-.65625.0312c-1.08111.0541-2.34488.41558-3.15625,1.4375l-.0312.0312v.0312c-1.11265,1.63894-2.71096,3.17774-3.9375,4.9375-1.09941,1.57736-1.72319,3.45996-1.46875,5.625-.17149.0837-.34628.14591-.5.1875-4.00595-1.57785-7.18809-3.55828-10.0625-4.8125-2.94764-1.28617-5.79499-1.76759-8.625,0-2.00979,1.25531-3.67206,3.98423-5.125,6.65625s-2.67484,5.37371-3.15625,6.125l-.34375.53125 .4375.46875c2.02888,1.99779 2.39554,5.2768 1.4375,7.96875-1.05721,1.1595-2.35698,2.11811-3.65625,3.25a1.09291,1.09291 0 0,0 -.15625,0c-3.11479-.67295-5.4853-2.55463-8.03125-4.4375-2.53295-1.87325-5.3098-3.68836-9.03125-3.84375-4.41022-2.7423-8.02041-6.16162-11.34375-10.09375-.10274-2.64632 1.15406-6.55273 1.4375-10.625 .28951-4.15959-.76604-8.6737-5.78125-11.75-.00087-.003-.0297-.0143-.0625-.0625-.0656-.0964-.16934-.25904-.28125-.46875-.22383-.41941-.50496-.99898-.8125-1.625-.61507-1.25203-1.26214-2.64775-2.21875-3.59375-3.6938-3.65491-7.19424-5.94246-9.5-8.25-2.241-2.24273-3.42091-4.38677-3.0625-8.3125 .58448-.62503 1.09026-1.1636 1.53125-1.65625 4.42043-.42186 8.80018-.67255 12.21875,1.53125l.5625.34375 .5625-.34375c1.45137-.8629 2.86046-1.65582 4.375-2.125a1.06076,1.06076 0 0,0 .1875-.0937 1.03314,1.03314 0 0,0 .28125-.21875 1.06076,1.06076 0 0,0 .0312-.0312zm203.25,4.4375c.47495.03.89314.15666 1.28125.34375 .77623.37418 1.47601,1.06121 2.21875,1.875 1.45944,1.59904 3.11841,3.77231 6.0625,4 2.35826,2.46865 5.59333,4.33384 8.15625,6.25-.14394,4.67531-1.53896,9.27721-1.75,13.84375l-.0312.4375 .375.25c2.15189,1.37051 3.96173,3.1974 5.71875,5.03125l.5.53125 .5625-.4375c1.76097-1.40572 3.32881-1.89573 4.8125-1.84375s2.93077.64087 4.375,1.625c2.73297,1.86229 5.3203,5.01235 7.84375,7.53125-.13021,1.0348-.12432,2.03382-.21875,2.90625-.0928.85759-.29826,1.55336-.75,2.15625-1.41507-.18286-2.38729-1.18229-3.46875-2.4375l-.25-.28125h-.40625c-.47544.0205-1.11421.07-1.75.4375l-.15625.0937-.0937.125c-1.00633,1.48573-1.57392,3.02549-2.40625,4.3125-.4712.2476-.93942.45968-1.25.53125-2.90362-1.45593-5.79114-1.58302-8.53125-1.34375-2.69731.23554-5.29479.69338-7.8125.46875a.91294,.91294 0 0,0 -.34375-.125c-2.16752-.57618-4.006.20441-5.40625,1.25-1.11065.82934-2.06818,1.76103-2.96875,2.46875-.77617-.99137-1.79588-1.63782-2.8125-2.1875-.52095-5.94852-4.20857-9.63657-8.90625-11.40625-2.42428-.91326-5.08999-1.37617-7.78125-1.5-2.45979-.11318-4.92501.0732-7.21875.4375-.93208-3.14135-.83702-7.13216-.875-10.6875 .8285-.55707 1.76954-.91486 2.84375-1.25 1.18065-.36835 2.4483-.7797 3.5625-1.71875l.375-.3125-.125-.46875c-.10642-.36384-.2493-.80334-.53125-1.34375l-.0937-.1875-.1875-.0937c-.9348-.54647-1.96974-1.14176-3.28125-1.46875-.18915-.36024-.32907-.68517-.40625-.9375 3.17615-3.54912 6.51415-7.53858 9.40625-11.625 1.91451-.0357 4.11606-.14865 6.09375-.84375 1.91822-.6742 3.64611-2.02879 4.375-4.28125 .4669-.10037.88201-.14825 1.25-.125zm100.75.1875c.13512.002.26993.0363.4375.0625 .44428.0695.9489.245 1.5.40625 .13.70753.1723,1.9356.0937,2.71875-5.03892.79697-9.8113,4.0196-12.25,8.375l-.21875.40625 .25.375c2.50244,3.80753 3.79107,8.78588 5.625,13.5 1.78539,4.58934 4.20401,8.9552 8.875,11.59375 .30531,2.11053.95665,4.06007 1.15625,5.96875v.0312l.0312.0625c.013.05.0186.10466.0312.15625-1.16817,1.23534-2.76088,1.98211-4.40625,2.8125-1.60574.8104-3.26995,1.72212-4.375,3.40625-5.34041-.7986-9.49146-3.85712-15.78125-4.90625-.55838-1.63999-1.65981-2.8601-3.0625-3.34375-1.36892-.47201-2.88347-.30558-4.3125.25-1.10433-1.76847-2.65966-2.89156-4.40625-3.40625-1.85715-.54727-3.85141-.61131-5.71875-.625-2.12713-1.80968-3.19567-4.44865-4.34375-7.21875-1.11583-2.69231-2.38423-5.5117-5.03125-7.34375-.36381-4.97529-1.87568-9.6917.1875-13.90625a.94349,.94349 0 0,0 0-.0312c1.33565-.5608 2.57374-.30348 4,.0937 1.60454.44688 3.40189,1.1102 5.4375.5625l.21875-.0312 .15625-.1875c1.97952-2.35832 4.43871-2.72831 7.15625-2.625s5.58001.79219 8.0625.28125c2.72666-.56068 5.63715-2.78346 8.84375-4.53125s6.5715-3.0428 10.03125-2.0625l.5.15625 .28125-.40625c.32632-.45045.62588-.59985 1.03125-.59375zm23.53125,2.5c1.84747.002 3.65171.26159 5.40625.90625 1.44328,4.49831 1.27363,9.19283 1.40625,13.96875 .13239,4.7675.62444,9.64313 3.625,14.21875h-.0312c.018.0386.0863.37681.125.75-.10393,1.14458-.61176,1.59248-1.5,2.1875-.89786.60146-2.15283,1.1267-3.125,2.25l-.78125.875 .9375.6875c3.04955,2.29865 5.28934,5.80948 8.03125,9.03125-1.02459,1.0614-2.34642,1.41598-3.96875,1.71875-1.92752.35973-4.20741.5956-6.0625,2.1875a.9084,.9084 0 0,0 -.0312.0312c-3.81009.98966-7.32887.26622-10.71875-1.34375-3.44652-1.63687-6.69063-4.19491-9.8125-6.65625-.0168-.0628-.0454-.12162-.0625-.1875h-.0312c-.25175-2.21134-.94542-4.23199-1.1875-6.21875l-.0625-.375-.34375-.1875c-4.47655-2.37179-6.71168-6.43437-8.5-11.03125-1.72098-4.42378-3.00214-9.26051-5.5-13.28125 2.25238-3.77352 6.57194-6.72041 11.03125-7.40625a1.06949,1.06949 0 0,0 .4375.21875c1.00129,1.42014 1.98542,2.79522 2.6875,4.3125l.0937.1875 .21875.125c.76371.4505 1.61421.42853 2.28125.21875s1.23218-.58088 1.6875-.8125l.15625-.0625 .125-.1875c1.11746-1.64128 1.74133-3.37248 2.625-4.90625 3.74926-.40277 7.36784-1.22174 10.84375-1.21875zm-70.0625,22.46875c1.95334,1.51569 2.98586,3.79016 4.03125,6.3125 1.16946,2.82169 2.32412,5.92216 5.03125,8.09375l.25.1875 .3125.0312c1.95707.011 3.93797.0433 5.59375.53125s2.94785,1.33663 3.8125,3.125l.40625.8125 .78125-.40625c1.23589-.62729 2.59242-.74181 3.65625-.375s1.89552,1.13083 2.21875,2.625l.125.59375 .59375.0937c6.12172.90482 10.29252,4.13517 16.3125,5 .65706.78891.83638,1.47675.8125,2.1875-.0262.78099-.34744,1.65529-.75,2.625s-.90438,2.03424-1.09375,3.21875c-.16224,1.01485.0328,2.1264.5625,3.25l-.21875.375c-2.05216-.14281-4.48799-.75774-6.90625-.6875-1.30127.0378-2.61905.29249-3.78125,1.03125s-2.13145,1.92188-2.8125,3.65625l-.0937.21875 .0312.1875c.0496.50895.11803,1.05986.3125,1.625l.0312.125 .0625.0937c.46856.66307 1.14106,1.05048 1.78125,1.21875s1.24951.16783 1.8125.15625c1.07646-.0221 1.85315-.0149 2.40625.4375 1.88749,3.22922 2.16607,6.61988 2.125,10.21875-.0383,3.35318-.35408,6.84988.28125,10.40625-1.32007.0423-2.60308-.54179-4.09375-1.125-1.67566-.65558-3.72912-1.14298-5.90625-.0937-3.00939-1.9712-6.53072-1.3144-9.5-.96875-1.57358.18318-3.01557.23966-4.1875-.0937-1.14636-.32619-2.07514-.99963-2.90625-2.53125a.88919,.88919 0 0,0 -.0625-.0937 .90979,.90979 0 0,0 -.0312-.0625 .88919,.88919 0 0,0 0-.0312 .90979,.90979 0 0,0 -.0625-.0312 .88919,.88919 0 0,0 0-.0312 .90979,.90979 0 0,0 -.0625-.0625c-.72718-1.99528-1.73752-3.66938-2.21875-5.4375 .62499-1.54504.59257-2.98185-.0312-4.0625-.68954-1.19441-1.81941-1.99225-2.90625-2.78125s-2.13177-1.57054-2.78125-2.40625-.97673-1.64728-.65625-3l.21875-.875-.875-.1875c-2.82697-.5711-4.64972-2.65989-7.40625-4.375-2.00886-6.59874-3.68363-12.88428-7.53125-18.4375 .60243-.91585.83557-1.93324.9375-2.875 .085-.78578.11429-1.5295.15625-2.21875 1.7339.002 3.11671-.772 4.21875-1.625 1.31971-1.02148 2.38268-2.10969 3.78125-2.625l.625-.21875v-.65625c-.0155-3.55752 1.58624-7.12337 3.59375-10.0625zm-190.625,5.4375c.38675,1.10704.93166,2.00687 1.6875,2.5625 .95278.70041 2.09854.96788 3.25,1.03125 2.30292.12674 4.81413-.41453 6.84375-.21875a.8149,.8149 0 0,0 .0625,0c2.73414,1.03175 5.94023,3.02055 8.21875,5.5 2.28476,2.48624 3.58722,5.38098 2.8125,8.46875-.80999.51161-1.94831.90384-2.84375,1.6875l-.28125.21875v.375c.0762,2.02766.88578,3.81068 1.03125,5.5a.89039,.89039 0 0,0 -.0937.625c-.5464.90151-1.45798,1.65492-2.40625,2.53125-1.10809,1.02403-2.24258,2.31301-2.375,4.21875l-.0312.0937 .0312.0937c.35424,1.65253 1.52088,2.62926 2.75,3.25 .88643.44767 1.79513.75217 2.625,1.0625-2.50272,3.23976-5.77323,6.2974-8.59375,9.71875-2.95973,3.59022-5.40594,7.64441-5.84375,12.6875-.60265.73446-1.1947,1.11545-1.75,1.21875-.59596.11086-1.23503-.003-1.9375-.34375-1.40494-.68112-2.89537-2.19435-3.96875-3.4375l-.3125-.375-.5.0937c-1.5809.34129-2.77473,1.26272-3.65625,2.4375s-1.48495,2.60563-1.96875,4.09375c-.9196,2.82862-1.51148,5.85174-2.5,7.875-.54035.11447-1.09341.20606-1.625.25a1.0349,1.0349 0 0,0 -.125-.125c-2.3479-3.1617-5.99279-4.10534-9.5625-4.5625-3.44808-.44159-6.88614-.5539-9.53125-1.5-.0323-2.7095-1.08664-4.93959-2.875-6.28125-1.82746-1.371-4.27436-1.79477-6.8125-1.5625-.88756-.83504-1.90644-1.91763-2.21875-2.5 .0283-.22184.0849-.43272.125-.59375 .19587-.20296.3715-.36842.65625-.4375 .35049-.085.83568-.0947 1.40625-.0625 1.14113.0644 2.66385.33919 4.09375-.53125l.25-.15625 .15625-.25c.28577-.5251.5946-1.06671.78125-1.6875l.0625-.1875-.0312-.21875c-.15265-2.09911-1.51231-3.43691-2.75-4.40625-1.03946-.81408-1.90631-1.48583-2.46875-2.21875 .46539-.84022 1.13961-1.54992 2.0625-2.28125 1.10081-.87232 2.41032-1.78766 3.34375-3.1875l.1875-.28125v-.3125c-.008-.69067.041-1.61045-.25-2.5l-.0625-.1875-.125-.15625c-.74883-.97866-1.28305-2.07595-1.59375-3.25 1.25026-1.06105 2.65435-2.03853 3.875-3.40625l.0937-.125 .0625-.125c1.16075-3.04428.80523-6.75898-1.40625-9.34375 .7067-1.20991 1.66216-3.31587 2.96875-5.71875 1.41431-2.60098 3.16529-5.22106 4.5625-6.09375 2.33499-1.45841 4.35864-1.08208 7.125.125s6.0888,3.27749 10.40625,4.9375l.21875.0937 .21875-.0312c.62415-.10738 1.09462-.36967 1.5-.59375l.53125-.3125-.125-.59375c-.45331-1.99244.14929-3.48326 1.25-5.0625 1.08884-1.5622 2.67191-3.10488 3.90625-4.90625 .29707-.37416.90491-.50064 1.46875-.625zm119.21875,6.09375c3.18191-.0427 6.40926.37142 9.15625,1.40625 4.39519,1.65573 7.55628,4.7176 7.84375,10.34375l.0312.53125 .4375.21875c1.28432.67146 2.33176,1.31562 2.9375,2.375a.91922,.91922 0 0,0 .0625.15625c-.54532,5.66039-.75493,11.91609-4.46875,15.875-.32375-.025-.62342-.0747-.96875-.25-.45524-.23109-.96497-.57105-1.59375-.8125l-.0625-.0312h-.0625c-1.03759-.19565-1.97551.26784-2.8125.75l-.3125.15625-.0625.34375c-.19573.83928-.39785,1.5423-.53125,2.21875l-.0625.375 .25.28125c1.46628,1.76873 1.75696,4.23686 2.3125,6.75 .52616,2.38023 1.44466,4.8445 4.09375,6.28125-.12273,8.85096 4.66662,16.2568 4.65625,24a.79548,.79548 0 1,0 1.5625,0c.0114-8.54083-4.95787-15.99417-4.65625-24.4375v-.53125l-.46875-.21875c-2.45946-1.13618-3.12829-3.04914-3.65625-5.4375-.49632-2.24523-.84033-4.84146-2.40625-7 .0926-.43829.21156-.94559.34375-1.5 .59172-.28399 1.22313-.50917 1.4375-.46875 .36405.1592.78431.41938 1.3125.6875 .57801.29341 1.29807.58686 2.15625.5l.28125-.0312 .1875-.21875c4.51188-4.50256 4.5654-11.36405 5.09375-17.03125a.90149,.90149 0 0,0 .0937-.125c1.28651-.87804 2.34415-2.02731 3.4375-2.84375 1.03492-.7728 1.97022-1.25298 3.21875-1.09375-.56755,5.24744 1.89936,10.08326 5.78125,13.28125-1.01277,3.57283.13479,6.58438 1.59375,9.3125 1.52916,2.8594 3.28553,5.52149 3.4375,8.65625v.40625l.375.1875c2.78248,1.60285 4.19813,4.48182 5.6875,7.59375 1.40524,2.93615 2.87594,6.04221 5.71875,8.1875a.9224,.9224 0 0,0 .0312.125c-1.23635,4.19249-2.13518,8.05581-2.03125,11.875a.94154,.94154 0 0,0 -.0937.125c-1.36028.43966-2.81042.51085-4.09375.15625-1.46156-.40385-2.69576-1.29889-3.4375-2.8125l-.15625-.3125-.3125-.0937c-.79033-.21679-1.64497-.26401-2.46875-.15625s-1.63131.36742-2.34375.84375l-.1875.125-.0937.21875c-.76516,1.89403-2.26585,2.7374-4.1875,3.46875-.45037-.0854-.94964-.27955-1.5625-.46875-.57258-.17677-1.27375-.29334-2-.125-.01-.011-.0137-.0174-.0312-.0312-.0802-.0632-.15934-.14184-.28125-.21875-.061-.0385-.15209-.0816-.28125-.125s-.38616-.12269-.71875.0937c-6.4272,4.19636-15.5976,5.84257-23.75,8.0625-2.03143-1.0865-4.10954-.85052-5.9375-.75-2.29271-5.62869-1.71955-13.63031-2.4375-20.4375l-.0312-.34375-.25-.21875c-.87587-.8268-1.94948-1.02253-2.84375-1.15625-.7264-.10862-1.27174-.25906-1.75-.4375-.12819-.84547.14104-1.79953.5-2.96875 .20692-.67398.39444-1.38516.375-2.1875s-.29931-1.67973-.9375-2.4375c-.70569-.85615-1.71221-1.16121-2.59375-1.125s-1.67273.30661-2.375.53125-1.32625.39996-1.625.375c-.29875-.025-.35555.008-.5625-.5625-.008-.0419-.0251-.083-.0312-.125 3.4383-7.14279 3.53625-14.79523 3.375-22.375-.15819-7.43601-.55619-14.82399 1.5-21.71875 1.11367-.0889 2.46813-.0414 3.8125-.34375 1.40127-.31513 2.85271-1.19491 3.53125-2.875 1.57275-.24699 3.22709-.41497 4.90625-.4375zm-30.96875,1.9375c1.88719-.0502 3.71284.13608 5.59375.40625 3.4483.4953 7.05105,1.24308 11.34375,1.1875-2.04364,7.16213-1.62328,14.61068-1.46875,21.875 .15891,7.46998.0211,14.74605-3.125,21.40625-.55164-.0509-1.09007-.0775-1.59375,0-2.16497.33324-3.85976,1.73756-5.09375,3.46875-1.64532,2.30826-2.6377,5.24454-3.28125,7.5l-.0625.25 .0937.21875c.68225,1.85107 1.67772,3.70258 2.125,5.4375 .43322,1.68036.35175,3.14643-.875,4.71875-2.42245.32622-4.67066,1.62986-6.71875,2.28125-1.0961.34861-2.13044.51541-3.0625.3125s-1.84323-.74317-2.8125-2l-.25-.34375-.375.0312c-.53372.0224-1.16874.0297-1.75.0937-2.09724-3.36932-3.12066-7.3402-4.6875-11.21875 .55647-.85872 1.2367-1.73236 1.625-2.84375l.0937-.34375-.15625-.3125c-3.08298-5.85277-1.97077-10.85201-.0312-16.09375s4.76068-10.61034 4.65625-16.78125v-.375l-.25-.21875c-.58288-.5246-1.06816-1.36976-1.875-2.125l-.15625-.125-.1875-.0625c-3.19619-.86466-5.85569-2.6288-8.84375-4.375 .005-.9027-.33339-1.64281-.5625-2.25-.15976-.42341-.26021-.76649-.28125-1.0625 .81011-.19652 1.52959-.62371 2.0625-1.25a1.08981,1.08981 0 0,0 .1875-.28125c1.29473-.56805 2.49185-1.27976 3.625-2.0625 2.83605.83577 4.79019.0945 6.1875-1.03125 1.45678-1.17367 2.45086-2.4984 3.96875-3 2.10156-.69417 4.05031-.981 5.9375-1.03125zm83,4.8125c1.10305,1.23357 2.4093,2.44651 4.3125,2.625a.97453,.97453 0 0,0 .15625.125c3.80981,5.37614 5.50602,11.60112 7.59375,18.4375l.0937.34375 .28125.15625c2.43637,1.44254 4.3896,3.69889 7.5625,4.59375-.1187,1.43714.20017,2.70751.9375,3.65625 .88036,1.13279 2.08871,1.94375 3.15625,2.71875 1.06754.775 1.9712,1.52766 2.40625,2.28125s.56511,1.49411-.125,2.875l-.15625.28125 .0937.3125c.52008,2.0332 1.54017,3.70582 2.21875,5.40625-3.10822,1.9006-5.717,3.72753-9.375,3.28125l-.8125-.0937-.1875.78125c-.21668,1.0109-.70118,1.50014-1.4375,2.0625-.5994.45779-1.34715.92977-2.03125,1.65625-2.29576-.74277-4.61841-.93116-6.9375-.90625-2.49671.0268-5.00842.29995-7.5.375-2.50552-1.88297-3.86574-4.76115-5.28125-7.71875-1.43868-3.006-2.99029-6.07281-6-7.96875-.29016-3.44856-2.10247-6.2658-3.53125-8.9375-1.48234-2.77185-2.55937-5.32214-1.4375-8.625l.1875-.5-.4375-.3125c-3.7578-2.93732-6.09225-7.46102-5.53125-12.34375 2.74468.2253 5.36365-.24672 7.90625-.46875 2.76343-.24131 5.38736-.19206 8.0625,1.28125l.25.125 .28125-.0312c.7335-.12864 1.40532-.48719 2-.8125l.15625-.0937 .125-.15625c.99243-1.46507 1.54884-2.9926 2.375-4.28125 .17479-.0795.38813-.10525.625-.125zm72.28125,1.5625c3.0334,2.3896 6.27844,4.88406 9.8125,6.5625 3.46018,1.64335 7.25177,2.46728 11.28125,1.5625-.0374.85806-.43314,1.68157-.90625,2.625-.61504,1.22646-1.3661,2.6961-.875,4.40625l.0937.34375 .34375.15625c1.27686.58003 2.59949.336 3.6875.28125 .98641-.0496 1.63923.0524 2.15625.53125 .0273.83375-.10654,1.88049.125,3.125l.0625.3125 .28125.1875c1.39917,1.03443 1.95653,2.10932 2.1875,3.3125s.0666,2.55044-.21875,4.03125c-.55026,2.85589-1.55078,6.16331-.125,9.28125-.49658,2.63695-1.96871,5.3009-1.90625,8.5-2.59844.56336-5.00719,1.57068-7.40625,2.125l-.1875.0312-.15625.125c-.35326.3018-.64239.55669-.96875.71875l-.3125.15625-.125.34375c-.46665,1.46171-.30401,2.70524.3125,3.625s1.5482,1.47713 2.5,1.9375 1.95042.83777 2.75,1.28125c.75262.41744 1.27266.8742 1.5625,1.4375 .031.46483-.0516.91907-.25,1.46875-.21552.59711-.51807,1.25988-.65625,2.0625l-.0937.46875 .375.28125c2.47767,2.09159 3.25407,4.37281 3.0625,6.8125-.18235,2.32223-1.33695,4.81336-3,7.21875-6.85432-.99595-13.11204-2.7764-16.6875-8.8125l-.0937-.1875-.21875-.125c-.52533-.26322-.96945-.38679-1.34375-.5l-.1875-.0625-.1875.0312c-1.5146.31886-2.86547.25032-4.3125.1875-1.30714-.0567-2.72032-.0755-4.25.28125-.59112-.71088-1.33756-1.19706-1.875-1.53125l-.375-.21875-.40625.1875c-5.4802,2.79852-11.75116,1.06385-15.5625-2.90625l-.28125-.28125-.40625.0312c-1.64106.22938-3.00468,1.16854-4.03125,1.5-.51328.16573-.90049.16723-1.1875.0625s-.59622-.34587-.96875-1.09375l-.34375-.65625-.6875.28125c-2.31055.9274-4.26771,2.75821-6.3125,4-1.9475,1.18271-3.82639,1.80819-6.1875.96875-.52849-1.38007-.82431-3.20019-2.125-4.65625l-.1875-.1875-.25-.0625c-2.48626-.48767-5.08747-.0735-7.34375.84375-1.76323-1.06396-3.25546-2.90477-3.90625-4.8125 .28096-1.04265.76528-2.10389.96875-3.28125 .17917-1.03673-.0236-2.22031-.875-3.25 .48204-.47585 1.0904-.87124 1.75-1.375 .70242-.53646 1.35778-1.34426 1.78125-2.40625 3.88543.22671 6.80979-1.66345 9.65625-3.40625 .98535,1.46817 2.26036,2.33046 3.625,2.71875 1.59319.45332 3.27233.3152 4.90625.125 3.26784-.3804 6.33293-.99802 8.71875.875l.46875.40625 .53125-.3125c1.77799-1.04615 3.11927-.63115 4.8125.0312s3.64862,1.6499 6,1.0625a.90979,.90979 0 0,0 .0312-.0312l.40625.15625 .34375-.3125c3.04996-2.88134 6.69298-3.58718 10.5625-3.3125s7.89182,1.58069 11.40625,2.75l.53125.1875 .3125-.46875c.49176-.75403 1.11039-1.10688 1.90625-1.28125s1.76209-.13961 2.75-.0937a.72627,.72627 0 1,0 .0625-1.4375c-.99609-.0462-2.07236-.10563-3.125.125-.87715.19218-1.69948.70482-2.375,1.46875-3.43312-1.14035-7.3702-2.43668-11.34375-2.71875-3.84632-.27304-7.7122.51841-10.96875,3.21875-.6285-3.32855-.35256-6.77076-.3125-10.28125 .0428-3.75014-.22891-7.60749-2.4375-11.28125l-.0625-.0937-.0937-.0937c-1.15129-1.0758-2.61347-.95959-3.6875-.9375-.53701.0111-1.00057-.004-1.34375-.0937-.30335-.0797-.50963-.21221-.71875-.46875-.0648-.23455-.11938-.54217-.15625-.875 .5642-1.33879 1.278-2.18883 2.0625-2.6875 .82724-.52584 1.77052-.71792 2.875-.75 2.20896-.0642 4.8762.6776 7.34375.75h.5l.28125-.46875c.2325-.42769.43951-.76743.65625-1.125l.25-.4375-.25-.46875c-.58999-.96505-.67254-1.77245-.53125-2.65625s.55568-1.81746.96875-2.8125 .83534-2.03843.875-3.21875c.0353-1.0497-.31964-2.1633-1.15625-3.21875a.87174,.87174 0 0,0 0-.0312c.88773-1.31885 2.23662-2.09545 3.78125-2.875 1.53427-.77432 3.24906-1.54274 4.625-2.90625zm86.875,1.96875c1.55744.0168 3.07734.2555 4.5.75 2.77116.96321 5.26425,2.95621 7.375,6.375-.58191,8.52635-1.25601,17.62697-1.0625,26.125-3.30833,3.45473-7.76131,5.07593-12.625,6.3125-4.97822,1.26569-10.31201,2.13282-14.96875,4.46875l-.0937.0625-.0937.0625c-1.93954,1.56054-2.61424,3.6895-3.15625,5.59375-.48815,1.71502-.93088,3.2188-1.84375,4.375-2.40805-2.15215-5.47029-2.9699-8.5625-3.09375-3.16296-.12668-6.3527.43525-9.09375,1.03125-.45089-.83633-.92302-1.71495-1.5-2.59375l-.15625-.25-.28125-.0937c-.73082-.25081-1.45875-.22271-2.03125.0625s-.95032.74283-1.25,1.1875c-.48446.71886-.80973,1.29248-1.09375,1.6875-.21069-.0788-.41799-.14671-.6875-.28125-.35209-1.56463-.99949-2.81162-1.9375-3.65625-1.04633-.94217-2.32228-1.45932-3.625-1.875-2.49973-.79763-5.13152-1.25367-7.0625-2.78125-.12853-2.8138 1.42744-5.42626 1.96875-8.625l.0312-.28125-.125-.21875c-1.30905-2.52105-.43862-5.47511.15625-8.5625 .29743-1.54369.51809-3.09693.21875-4.65625-.27578-1.43661-1.10206-2.8195-2.53125-4-.14213-.97799-.0234-2.01824-.125-3.125v-.25l-.1875-.1875c-1.00491-1.19023-2.45876-1.279-3.65625-1.21875-1.0062.0506-1.80642.0613-2.46875-.0937-.0698-.86321.22863-1.71033.75-2.75 .54234-1.08148 1.20126-2.35988 1.0625-3.875 1.31443-.95218 3.01209-1.18358 4.875-1.53125 1.52301-.28423 3.1841-.71481 4.53125-1.84375 1.69193,4.13417 4.56795,6.69674 7.875,8.46875 3.6932,1.97892 7.90711,3.09599 11.90625,4.6875l.15625.0312 .15625.0312c2.33009.19718 4.19891-.64852 5.28125-2.09375 .87417-1.16727 1.15218-2.66662 1.1875-4.21875 .44315-.0511.86025-.12884 1.46875.125 .82926.34593 1.75368.95443 2.9375,1.15625l.46875.0625 .34375-.28125c4.8574-3.82893 11.67224-8.1594 18.1875-9.65625 1.62882-.37421 3.22381-.5793 4.78125-.5625zm-264.09375,5.0625a.94289,.94289 0 0,0 .0625,0c2.82618,1.65321 5.53429,3.40894 8.875,4.375 .45642.44587.93569,1.12466 1.53125,1.75 .013,5.54756-2.57172,10.61031-4.53125,15.90625-1.93865,5.23951-3.09551,10.81273-.0625,16.96875-.31542.77438-.89035,1.6104-1.46875,2.5625a.80088,.80088 0 0,0 -.0937.15625 .82013,.82013 0 0,0 -.15625.28125c-2.01716,2.43134-3.92538,5.17438-6.15625,7.25-2.32061,2.15912-4.91612,3.56246-8.625,3.25a.77018,.77018 0 0,0 -.0937,0c-3.34657-1.86704-6.31796-5.15539-10.6875-6.03125-.22971-.30664-.43785-.57052-.5625-.875l-.25-.53125-.5625.0312c-2.61348.19444-4.15774-.70097-5.71875-2.03125-1.47044-1.25309-2.92545-2.91748-4.96875-4.15625-.90083-3.96966-1.27694-8.47706-2.375-12.78125-1.12238-4.39952-3.03316-8.6092-7.09375-11.59375l-.34375-.25-.375.125-.0937.0312a.82438,.82438 0 0,0 -.1875.0312c-1.05303-.43477-2.18429-.75945-3.09375-1.21875-.98933-.49963-1.65804-1.11212-1.9375-2.1875 .12948-1.34199.85813-2.21652 1.875-3.15625 .91342-.84413 2.03592-1.69365 2.75-2.9375 4.17883-.6168 7.79684.8943 11.4375,2.90625l.40625.21875 .4375-.21875c5.03595-2.71134 10.72247-2.71248 16.40625-3 5.50253-.27835 11.03657-.89039 15.65625-4.875zm-43.46875,16.21875c3.35464,2.67102 5.03415,6.28157 6.0625,10.3125 1.07562,4.21623 1.45241,8.82805 2.4375,13.03125l.0625.34375 .3125.15625c1.93626,1.07786 3.35576,2.76428 5.0625,4.21875 1.57518,1.34235 3.52736,2.42172 6.21875,2.40625a.50219,.50219 0 0,0 .34375.9375h.34375a.82502,.82502 0 0,0 .15625.15625v.34375a.50005,.50005 0 1,0 1,0v-.15625c3.55268.8249 6.3099,3.62831 9.6875,5.59375-.14329.34748-.28614.72675-.5,1.15625-4.93626,1.57039-10.12632,2.43056-14.4375,6.625l-.0937.0625-.0625.0937c-.32491.59395-.6863,1.2713-.8125,2l-.0312.25 .0937.21875c.59882,1.27615.59075,2.47614.28125,3.75s-.94364,2.5815-1.59375,3.96875-1.3234,2.84802-1.59375,4.40625c-.24868,1.4333-.0376,2.95301.71875,4.5-.097.33697-.29472.68244-.53125,1.09375-1.05923.12502-2.14249.25352-3.125.71875-.85531.40499-1.64041,1.03204-2.21875,1.9375-9.94942-5.18776-17.60612-13.66844-22.9375-23.65625 .0989-.11222.14587-.26195.34375-.375 .35258-.20144.87501-.37872 1.4375-.625s1.20701-.57117 1.6875-1.21875c.37371-.50367.48529-1.18872.46875-1.9375 .15776-.15417.32269-.31505.46875-.34375 .20734-.0407.49936.0104.875.15625 .75127.29167 1.68714.98843 2.4375,1.5625l.25.1875 .28125.0312c.66693.0694 1.4996.17194 2.375.0625s1.83476-.45877 2.53125-1.28125l.1875-.21875 .0625-.28125c.33264-1.84651-.16628-3.45919-1.09375-4.6875s-2.2164-2.1128-3.53125-2.96875c-2.6297-1.71191-5.32802-3.25706-6.1875-5.5625l-.0312-.0625-.0625-.0937c-.18382-.31438-.46633-.7732-1.03125-1.25l-.3125-.25h-.40625c-.47555.0114-1.14895.0269-1.84375.40625l-.0625.0312-.0625.0625c-5.07121,3.86151-11.73488,7.82778-13.9375,14.96875-.53554.0496-1.07477.0182-1.4375-.21875-.40492-1.12049-1.07257-2.02467-1.625-2.78125-.62656-.8581-1.01626-1.49974-.96875-2.21875 .0414-.11357.0802-.22973.125-.34375 .81317-.0186 1.62685-.11827 2.40625-.3125l.375-.0937 .15625-.3125c1.31451-2.42279 1.83759-5.756 2.75-8.5625 .4562-1.40325 1.01364-2.65406 1.71875-3.59375 .61765-.82313 1.35865-1.35554 2.3125-1.65625 1.08232,1.21997 2.45579,2.61216 4.09375,3.40625 .9139.44306 1.93137.69298 2.96875.5s2.00799-.84037 2.84375-1.9375l.15625-.1875 .0312-.25c.30919-4.7565 2.59389-8.53066 5.53125-12.09375 2.8198-3.42049 6.21976-6.5949 8.875-10.125zm77.21875,16.71875c.0984.003.21142.0231.3125.0312 .002.0105-.002.0206 0,.0312l.0312.0625 .0312.0937c.37105,1.02199 1.24438,1.64778 2.09375,1.71875s1.59627-.17714 2.3125-.40625 1.39866-.4479 1.90625-.46875 .80194.0389 1.15625.46875c.39181.46523.48882.85119.5,1.3125s-.12242,1.00585-.3125,1.625c-.38017,1.23829-1.03574,2.79638-.4375,4.5l.0937.3125 .3125.1875c.95681.54487 1.93052.59622 2.75.71875 .70992.10615 1.20145.28811 1.625.59375 .63232,6.65861-.0883,14.88847 2.71875,21.09375l.25.53125h.59375c1.86029-.0401 3.5034-.27862 4.96875.1875-4.65243,6.53453-3.91904,14.41633-3.3125,21.15625-1.69657.33493-3.40199.57564-5,1.15625-1.8387.66806-3.55025,1.80819-4.875,3.875l-.0937.125-.0312.125c-.23356.98979-.17125,2.20898-.0312,3.28125v.1875l.0937.15625c.20948.3574.42912.69481.65625,1.125l.1875.375 .375.0937c1.64978.37473 2.88504,1.95217 3.78125,4 .79927,1.82633 1.2257,3.80743 1.5625,5.40625-.89344.37696-1.87474.72031-2.84375,1.28125-.95685.55389-1.87322,1.40085-2.28125,2.65625-.48721-.0937-.95112-.3082-1.46875-.65625-.73431-.49375-1.52199-1.20261-2.5625-1.6875l-.21875-.0937h-.21875c-3.8363-.0271-7.0833,1.61734-10.15625,2.96875-3.00092,1.31973-5.7699,2.3512-8.90625,1.78125-.39029-.32682-.79742-.6484-1.21875-1.0625 .88347-1.79059 1.28645-3.81934 1.90625-5.5625 .7051-1.98306 1.55186-3.4958 3.5-4.15625l.28125-.0937 .15625-.25c.28883-.51625.41483-.97203.53125-1.34375l.0312-.0625v-.0625c.57071-4.03685-1.04199-7.73994-3.03125-11.03125-.0434-.35368.0335-.59718.1875-.875 .13055-.23549.36597-.52775.59375-.84375 1.39142-.30206 2.4525-.91649 3.40625-1.46875l.21875-.125 .0937-.1875c.26237-.51919.41023-.96557.53125-1.34375l.0312-.1875-.0312-.1875c-.11183-.60843-.36913-1.09529-.59375-1.5-1.66661-2.75717-2.52148-7.17459-3.96875-10.84375l-.1875-.46875-.46875-.0312c-2.0018-.11543-3.3727-.71806-4.46875-1.59375s-1.91575-2.06259-2.71875-3.375c-1.51037-2.46854-2.98403-5.36839-6.125-6.90625 .11098-.69794.4517-1.28979 1-1.9375s1.22519-1.37065 1.6875-2.3125c.38767-.0464.92893-.0707 1.46875-.0937 1.04752,1.2126 2.19192,1.9612 3.375,2.21875 1.31188.28559 2.6116.0794 3.84375-.3125 2.46431-.78377 4.79744-2.20122 6.84375-2.34375l.34375-.0312 .21875-.25c1.67233-2.02052 1.76797-4.27217 1.25-6.28125-.49735-1.92912-1.46609-3.70946-2.09375-5.34375 .62686-2.15693 1.54233-4.79268 2.9375-6.75 1.26563-1.77559 2.7639-2.96924 4.90625-2.90625zm170.0625,6.84375c2.36719,1.86588 5.26344,2.29765 7.5625,3.03125 1.20366.38407 2.23536.84273 3,1.53125s1.31502,1.62098 1.5625,3.15625l.0625.40625 .375.1875c.58463.32212 1.23565.70124 1.96875.8125l.375.0625 .3125-.25c.87651-.7416 1.18886-1.79035 1.625-2.4375 .21807-.32358.42694-.5419.59375-.625 .1089-.0543.29869.0115.46875.0312 .5557.88458 1.09523,1.81983 1.5625,2.6875l.3125.5625 .625-.125c2.81787-.63005 6.16204-1.24993 9.28125-1.125 2.76767.11085 5.33324.75652 7.34375,2.46875-2.82664,2.88946-3.87706,6.44445-4.9375,9.71875-1.14142,3.52434-2.28843,6.71734-5.5,9.0625l-.46875.34375 .0312.5625c.14699,2.56578-.31232,5.44629.34375,8.375l.0937.4375 .375.21875c1.96858,1.2087 2.71434,2.4417 3.5625,4.5 .36737.89017.55986,2.56944.5,4.5625s-.34922,4.30206-.75,6.65625c-.76272,4.48028-1.98839,8.96053-2.9375,11.5-5.8034,2.01996-13.7618.007-20.34375-2.9375-.84679-.37831-1.60688-.22086-2.25-.15625s-1.21853.0314-1.21875.0312c-2.66705-1.00482-4.02901-3.21403-5.0625-5.6875s-1.51848-5.10423-3-6.8125l-.78125-.90625-.78125.90625c-1.51363,1.745-4.08224,2.78839-6.40625,2.71875s-4.33052-1.08036-5.21875-3.53125l-.375-1.0625-1.03125.46875c-5.4224,2.48029-12.80055.11681-16.375-4.65625 1.06082.0786 2.03119.23399 3.0625.25 1.56746.0243 3.2483-.33106 5.34375-1.65625 .9775-.61784 1.50721-1.26271 1.96875-1.75s.85684-.83255 1.84375-1.21875c3.70134-1.44944 8.02761-1.99224 11.9375-3.1875 3.83108-1.17117 7.33222-3.08969 9.1875-7.21875a.81918,.81918 0 0,0 0-.0312 .79113,.79113 0 0,0 .21875-.34375c1.80538-2.58098 3.15573-5.33266 3.375-8.125 .21466-2.73374-.77581-5.48609-3.25-7.78125 .11997-.43932.27672-.87423.46875-1.40625 .24323-.67389.48704-1.47612.375-2.375l-.0312-.125-.0312-.0937c-.48302-1.08417-1.39705-1.78742-2.34375-2.3125s-1.98392-.92787-2.84375-1.34375-1.50773-.84245-1.84375-1.34375c-.30563-.45597-.40771-1.04906-.15625-2 .2654-.1707.5079-.35389.71875-.53125 2.60269-.61537 5.05076-1.59028 7.5-2.09375zm-199.03125,3.90625c1.34323,3.52178 2.40071,7.27469 4.53125,10.65625-.32837.66718-.88965,1.31023-1.5,2.03125-.70879.83731-1.43934,1.86314-1.4375,3.28125v.53125l.46875.1875c2.99199,1.19943 4.27224,3.90332 5.9375,6.625 .83263,1.36084 1.77077,2.693 3.09375,3.75 1.20638.96384 2.79595,1.59867 4.78125,1.8125 1.2781,3.39005 2.07444,7.63605 3.90625,10.6875l.0312.0312c.17508.31735.27263.58951.34375.84375-.0717.21694-.14503.45478-.25.6875-.99473.58093-1.84657,1.09697-3.03125,1.28125l-.34375.0625-.1875.28125c-.22058.32852-.53981.6956-.8125,1.1875s-.46219,1.13055-.34375,1.875l.0312.15625 .0937.125c1.95629,3.19322 3.38829,6.6507 2.90625,10.21875-.003.0209.003.0416 0,.0625-.0809.25306-.20731.48098-.34375.75-2.24602.92878-3.37329,2.87998-4.09375,4.90625-.63553,1.78738-1.06545,3.64429-1.75,5.15625-4.20247-1.95182-8.85421-2.71361-13.34375-3.625-4.73807-.96184-9.30756-2.09565-13.15625-4.75l-.3125-.21875-.375.0625c-1.30117.14114-2.65982-.10486-3.75-.40625-.54509-.15069-1.02931-.30015-1.40625-.4375s-.53365-.23008-.875-.3125c-4.01715-.96806-7.08833.75125-9.6875,1.84375-1.29958.54625-2.487.95207-3.6875.9375s-2.47235-.40801-4.0625-1.625l-.375-.28125-.46875.0937c-1.00155.21876-1.90423.61196-2.6875.8125-.74715.19129-1.33234.18499-1.9375-.0625-.17682-.19546-.33805-.3981-.5625-.59375l-.0625-.0625-.0937-.0312c-.50123-.30862-1.56932-1.28592-1.96875-2.125-.5017-1.68029-.25426-2.87832.40625-4 .6742-1.14493 1.82457-2.17818 3.0625-3.1875s2.5553-1.97952 3.46875-3.1875c.86817-1.1481 1.27595-2.70857.625-4.28125a1.04816,1.04816 0 0,0 -.0312-.0937c.42062-.76349.96129-1.23343 1.65625-1.5625 .85534-.40501 1.95187-.56857 3.125-.6875l.375-.0625 .1875-.3125c.42096-.68419.68688-1.28339.84375-1.90625l.0937-.28125-.15625-.28125c-.77325-1.37302-.88083-2.61183-.65625-3.90625s.82561-2.62763 1.46875-4 1.32256-2.7792 1.6875-4.28125c.33683-1.38633.31529-2.87546-.28125-4.375 .0734-.32286.27591-.83039.53125-1.3125 4.00725-3.85426 8.93692-4.60271 14.09375-6.28125l.3125-.0937 .15625-.28125c.37887-.71018.57609-1.2107.75-1.65625 3.93257.18192 6.96378-1.41283 9.375-3.65625 2.18247-2.03059 3.93854-4.52001 5.6875-6.71875zm107.90625.15625c2.34372-.0312 4.60396.14871 6.75.90625a.89377,.89377 0 0,0 .0937.0312c.0126.005.0186.0266.0312.0312a.89377,.89377 0 0,0 .0312,0 .91454,.91454 0 0,0 .0625.0312 .89377,.89377 0 0,0 .0312,0 .91454,.91454 0 0,0 .0625,0c.7451.73993.76691,1.36635.625,2.1875-.16218.93846-.71764,2.08456-1.03125,3.4375l-.0625.1875 .0625.21875c.76134,2.42862 2.60355,4.62213 4.8125,5.90625l.1875.0937h.1875a.79113,.79113 0 0,0 .0937.0312c.39566.684.93315,1.2248 1.375,1.6875 .511.53511.81912.99866.96875,1.5625-.22966.67073-.49069,1.37449-.9375,1.75-2.58696.47814-4.23276,1.80949-5.28125,3.46875-.97472,1.54252-1.55515,3.30366-2.28125,5-4.64396.39967-7.48132.44763-11.53125-1.25-.71109-.83899-.93435-1.72579-.9375-2.8125-.003-1.13688.2432-2.43178.46875-3.75s.4289-2.66442.0625-4c-.33926-1.23666-1.23288-2.39971-2.75-3.15625-.079-3.48824.74785-7.16076 1.9375-11.21875 2.40837-.091 4.73374-.31396 6.96875-.34375zm-19.9375,10.03125c.28649.0144.56384.0602.84375.125 .95767,1.64914 2.41958,2.75615 4.09375,3.21875 1.62161.44808 3.38661.36261 5.03125-.1875 1.30909.57605 1.77652,1.21664 2,2.03125 .22754.82942.1214,1.92972-.0937,3.1875s-.53539,2.63438-.53125,4.0625 .38539,2.95851 1.53125,4.21875l.125.15625 .1875.0625c4.50024,1.94543 7.84899,1.91123 12.65625,1.5 1.41049,2.01945 3.8159,2.79368 5.90625,3.59375 1.14687.43896 2.20639.88817 3.03125,1.5 .77018.57127 1.30771,1.29574 1.625,2.3125-.24919,1.56778-1.73834,2.82728-3.21875,4.3125-.75703.75949-1.489,1.58475-1.875,2.625-.25403.6846-.31706,1.45042-.15625,2.28125-1.6852.24268-3.39188,1.09784-4.9375,1.9375-.95401.51827-1.816,1.03669-2.53125,1.46875s-1.32567.78451-1.46875.84375c-6.44147,2.67145-8.1051,5.3999-12.03125,10.15625-2.28314,2.76437-3.82923,5.54175-5.34375,7.21875-.75726.8385-1.46135,1.40374-2.21875,1.65625-.6595.21987-1.39948.22275-2.375-.0625 .069-8.883-3.71602-16.56274-4.84375-24.78125 1.61216-2.7291 3.83572-5.4789 6.09375-7.65625l.4375-.40625-.28125-.53125c-1.35176-2.56974-2.41511-4.91751-2.375-7.78125v-.9375l-.90625.125c-3.41309.46338-5.84872-1.17012-8.625-3.28125-.14986-.62854-.30624-1.20351-.40625-1.6875 .66572-1.39703.60745-2.82919.34375-4.0625-.25342-1.18523-.55084-2.24273-.5-3.21875 .29396-.0157.60051.0426.96875.15625 .56566.17463 1.20192.5003 2,.59375h.1875l.15625-.0625c2.04207-.7573 4.01828-1.87022 5.0625-4.09375 .70665-.44355 1.57803-.63694 2.4375-.59375zm37.21875,2.0625c.52611.008 1.04627.0729 1.5625.15625 .81862,1.08053 1.11311,2.70505 1.8125,4.3125l.125.28125 .3125.125c3.05511,1.25911 5.70679.35471 7.9375-1 2.036-1.23646 3.84303-2.7144 5.59375-3.5625 .39925.54623.84344.99353 1.375,1.1875 .75434.27527 1.50841.15677 2.1875-.0625 1.2683-.40951 2.44848-1.08678 3.53125-1.3125 4.16215,4.03017 10.63071,5.72402 16.46875,3.03125 .63592.39635 1.25112.78593 1.5,1.25l.3125.5625 .625-.1875c1.46996-.41953 2.76078-.40568 4.1875-.34375 1.34182.0582 2.81268.10886 4.4375-.1875 .30036.092.56142.20793.90625.375 3.83426,6.15194 10.31254,8.12647 16.96875,9.15625-1.67594,3.12986-4.42094,4.61944-7.8125,5.65625-3.71436,1.13549-8.09784,1.66619-12.0625,3.21875-1.20309.4708-1.88204,1.07154-2.40625,1.625s-.88075,1.00984-1.65625,1.5c-1.88455,1.19181-3.15246,1.42717-4.5,1.40625-1.17177-.0182-2.46929-.28226-4.125-.3125a1.04205,1.04205 0 0,0 -.78125-.34375c-1.47344-.69426-2.93729-1.5221-4.5625-2.21875l-.25-.0937-.25.0312c-6.48234.87047-12.33022,3.6501-18.15625,5.875-5.72119,2.18486-11.40669,3.83016-17.71875,2.875a1.06434,1.06434 0 0,0 -.0312,0c-.23496-.71807-.20244-1.26693 0-1.8125 .25462-.68618.79503-1.35524 1.5-2.0625 1.40994-1.41452 3.45971-2.91945 3.75-5.34375v-.125l-.0312-.15625c-.39143-1.48154-1.24814-2.5462-2.28125-3.3125s-2.23175-1.26921-3.40625-1.71875c-2.1271-.81415-4.10971-1.50923-5.1875-3a.94154,.94154 0 0,0 -.0625-.4375c.77205-1.78533 1.34526-3.51087 2.1875-4.84375 .93953-1.48684 2.13654-2.50955 4.5625-2.875l.1875-.0312 .15625-.125c1.01535-.78185 1.34852-1.97418 1.59375-2.71875l.0625-.1875-.0625-.15625c-.20244-1.08031-.85254-1.82494-1.4375-2.4375-.34956-.36606-.65745-.69798-.90625-1.03125 1.2351-.41173 2.53858-.64427 3.84375-.625zm-49.625,1.84375c-.0849,1.34315.29766,2.56374.53125,3.65625 .26909,1.25854.36249,2.25767-.28125,3.3125l-.15625.25 .0625.3125c.13416.6771.30098,1.3702.5,2.21875l.0937.28125 .21875.1875c2.71153,2.07286 5.54673,3.92172 9.25,3.71875 .14783,2.69031 1.06916,5.02349 2.21875,7.25-2.2909,2.2706-4.56224,4.957-6.1875,7.78125l-.125.25 .0312.25c1.13005,8.68714 4.9765,16.35256 4.90625,24.875a1.05256,1.05256 0 0,0 -.3125.5c-1.38593,1.57119-2.94645,2.35231-4.78125,3.03125-1.81793.6727-3.89149,1.25809-5.96875,2.34375-2.67617-.5986-5.02865-2.17071-7.65625-3.5625-2.59119-1.3725-5.5769-2.41998-9.21875-1.625-1.37006-1.18127-2.90273-1.83731-4.46875-2-1.7493-.18173-3.51538.0905-5.25.375-3.26687.53586-6.37077,1.11001-9.1875-.21875 .24141-.77176.72231-1.17975 1.4375-1.59375 .91544-.52992 2.16425-.89462 3.375-1.5l.59375-.3125-.125-.65625c-.33882-1.649-.84696-4.15983-1.84375-6.4375-.93213-2.1299-2.37239-4.10116-4.5625-4.8125-.14146-.25929-.27632-.49535-.40625-.71875-.0996-.83673-.10504-1.78797 0-2.375 1.10125-1.66159 2.35291-2.52937 3.90625-3.09375 1.59205-.57844 3.48965-.84373 5.53125-1.28125l.75-.15625-.0625-.75c-.63568-7.18915-1.52452-15.16246 3.4375-21.4375a.91109,.91109 0 0,0 .0312-.0625c7.8699-2.1474 16.90567-3.75973 23.71875-8z"/>
</svg>
